<?xml version="1.0" encoding="utf-8"?>
<!-- Generator: Adobe Illustrator 24.3.0, SVG Export Plug-In . SVG Version: 6.00 Build 0)  -->
<svg version="1.1" id="Layer_1" xmlns="http://www.w3.org/2000/svg" xmlns:xlink="http://www.w3.org/1999/xlink" x="0px" y="0px"
	 viewBox="0 0 703 527" style="enable-background:new 0 0 703 527;" xml:space="preserve">
<style type="text/css">
	.st0{fill:#DEEDF4;}
	.st1{fill:none;stroke:#0074A3;stroke-width:5;stroke-linecap:round;stroke-linejoin:round;stroke-miterlimit:10;}
	.st2{fill:#D7EFF6;}
	.st3{fill:#0074A3;}
	.st4{fill:none;stroke:#101111;stroke-width:3;stroke-miterlimit:10;}
	.st5{fill:#101111;}
	.st6{fill:#A4A4A4;}
	.st7{fill:#F3F3F3;}
</style>
<g>
	<g>
		<path class="st0" d="M228.7,163C228.7,163,228.7,163,228.7,163c-10.1-17-22.6-31.6-36.9-43.8l-3.4-2.8
			c-10.4-8.4-21.7-15.6-33.6-21.4c0,0,0,0,0,0.1h0c0,0,0,0,0,0.1h0c0,0,0,0,0,0.1h0c0,0,0,0,0,0.1h0c0,0,0,0,0,0.1h0c0,0,0,0,0,0.1
			h0c0,0,0,0,0,0.1h0c0,0,0,0,0,0.1h0c0,0,0,0,0,0.1h0c0,0,0,0,0,0.1h0c0,0,0,0,0,0.1h0c0,0,0,0,0,0.1h0c0,0,0,0,0,0.1h0
			c0,0,0,0,0,0.1h0c0,0,0,0,0,0.1h0c0,0,0,0,0,0.1h0c0,0,0,0,0,0.1h0c0,0,0,0,0,0.1h0c0,0,0,0,0,0.1h0c0,0,0,0,0,0.1h0
			c0,0,0,0,0,0.1h0c-0.6,13.2,0.3,26.5,2.7,39.7l0.9,4.3c3.9,18.3,10.8,36.3,20.9,53.2c0,0,0.1,0.1,0.1,0.1l3.1,5.2l0,0l0,0l5.8,9.7
			l0,0l9.5,15.9c1.8,3,5.7,4,8.8,2.2c1.7-1,2.7-2.6,3-4.4c0,0,0,0,0-0.1s0,0,0-0.1s0,0,0-0.1s0,0,0-0.1s0,0,0-0.1s0,0,0-0.1
			s0,0,0-0.1s0,0,0-0.1s0,0,0-0.1s0,0,0-0.1s0,0,0-0.1s0,0,0-0.1s0,0,0-0.1s0,0,0-0.1s0,0,0-0.1s0,0,0-0.1s0,0,0-0.1s0,0,0-0.1
			s0,0,0-0.1s0,0,0-0.1c0.2-1.4,0-2.9-0.7-4.2l-1.3-2.2c-0.3-0.5-0.4-1.1-0.4-1.6c0.2-0.6,0.7-1.2,1.3-1.6c1.5-0.9,3.5-0.4,4.4,1.1
			l7.3,12.2c0.9,1.4,2.8,1.8,4.2,0.9c0.9-0.5,1.4-1.4,1.5-2.3c0,0,0,0,0-0.1s0,0,0-0.1s0,0,0-0.1s0,0,0-0.1s0,0,0-0.1s0,0,0-0.1
			s0,0,0-0.1s0,0,0-0.1s0,0,0-0.1s0,0,0-0.1s0,0,0-0.1s0,0,0-0.1s0,0,0-0.1s0,0,0-0.1s0,0,0-0.1s0,0,0-0.1s0,0,0-0.1s0,0,0-0.1
			s0,0,0-0.1s0,0,0-0.1c0.1-0.7,0-1.5-0.4-2.2l-0.7-1.1c0,0,0,0,0,0l-1.4-2.3c-0.3-0.5-0.4-1.1-0.4-1.6c0.2-0.6,0.7-1.2,1.3-1.6
			c1.5-0.9,3.5-0.4,4.4,1.1l1.8,3.1c1,1.3,2.8,1.7,4.2,0.8c0.9-0.5,1.4-1.4,1.5-2.3c0,0,0,0,0-0.1s0,0,0-0.1s0,0,0-0.1s0,0,0-0.1
			s0,0,0-0.1s0,0,0-0.1s0,0,0-0.1s0,0,0-0.1s0,0,0-0.1s0,0,0-0.1s0,0,0-0.1s0,0,0-0.1s0,0,0-0.1s0,0,0-0.1s0,0,0-0.1s0,0,0-0.1
			s0,0,0-0.1s0,0,0-0.1s0,0,0-0.1s0,0,0-0.1c0.1-0.7,0-1.5-0.4-2.2l-6.6-11.1c-0.3-0.5-0.4-1.1-0.4-1.6c0.2-0.6,0.7-1.2,1.3-1.6
			c1.5-0.9,3.5-0.4,4.4,1.1c0,0,2.1,3.4,2.1,3.3c2,2.4,5.5,3.1,8.2,1.5c1.6-1,2.6-2.5,3-4.3c0,0,0,0,0-0.1s0,0,0-0.1s0,0,0-0.1
			s0,0,0-0.1s0,0,0-0.1s0,0,0-0.1s0,0,0-0.1s0,0,0-0.1s0,0,0-0.1s0,0,0-0.1s0,0,0-0.1s0,0,0-0.1s0,0,0-0.1s0,0,0-0.1s0,0,0-0.1
			s0,0,0-0.1s0,0,0-0.1s0,0,0-0.1s0,0,0-0.1s0,0,0-0.1c0.3-1.5,0.1-3.1-0.8-4.5l-9.7-16.3l0,0l-3.8-6.3l-2.7-4.5l0,0l-2.4-4
			c0-0.1-0.1-0.1-0.1-0.1C228.9,163.3,228.8,163.2,228.7,163C228.8,163.2,228.8,163.1,228.7,163z M204.7,178.9
			c-2.9,1.7-6.7,0.8-8.4-2.1c-0.7-1.1-0.9-2.4-0.8-3.7c0.4-1.4,1.4-2.7,2.8-3.5c2.9-1.7,6.7-0.8,8.4,2.1c0.7,1.1,0.9,2.4,0.8,3.7
			C207.1,176.8,206.1,178,204.7,178.9z M188.7,153.5c2.9-1.7,6.7-0.8,8.4,2.1c0.7,1.1,0.9,2.4,0.8,3.7c-0.4,1.4-1.4,2.7-2.7,3.5
			c-2.9,1.7-6.7,0.8-8.4-2.1c-0.7-1.1-0.9-2.4-0.8-3.7C186.4,155.6,187.3,154.3,188.7,153.5z M179.1,137.4c2.9-1.7,6.7-0.8,8.4,2.1
			c0.7,1.1,0.9,2.4,0.8,3.7c-0.4,1.4-1.4,2.7-2.8,3.5c-2.9,1.7-6.7,0.8-8.4-2.1c-0.7-1.1-0.9-2.4-0.8-3.7
			C176.8,139.5,177.7,138.2,179.1,137.4z"/>
	</g>
	<g>
		<path class="st1" d="M234.5,155.4C234.5,155.4,234.5,155.3,234.5,155.4c-10.1-17-22.6-31.6-36.9-43.8l-3.4-2.8
			c-10.4-8.4-21.7-15.6-33.6-21.4c0,0,0,0,0,0.1h0c0,0,0,0,0,0.1h0c0,0,0,0,0,0.1h0c0,0,0,0,0,0.1h0c0,0,0,0,0,0.1h0c0,0,0,0,0,0.1
			h0c0,0,0,0,0,0.1h0c0,0,0,0,0,0.1h0c0,0,0,0,0,0.1h0c0,0,0,0,0,0.1h0c0,0,0,0,0,0.1h0c0,0,0,0,0,0.1h0c0,0,0,0,0,0.1h0
			c0,0,0,0,0,0.1h0c0,0,0,0,0,0.1h0c0,0,0,0,0,0.1h0c0,0,0,0,0,0.1h0c0,0,0,0,0,0.1h0c0,0,0,0,0,0.1h0c0,0,0,0,0,0.1h0
			c0,0,0,0,0,0.1h0c-0.6,13.2,0.3,26.5,2.7,39.7l0.9,4.3c3.9,18.3,10.8,36.3,20.9,53.2c0,0,0.1,0.1,0.1,0.1l3.1,5.2l0,0l0,0l5.8,9.7
			l0,0l9.5,15.9c1.8,3,5.7,4,8.8,2.2c1.7-1,2.7-2.6,3-4.4c0,0,0,0,0-0.1s0,0,0-0.1s0,0,0-0.1s0,0,0-0.1s0,0,0-0.1s0,0,0-0.1
			s0,0,0-0.1s0,0,0-0.1s0,0,0-0.1s0,0,0-0.1s0,0,0-0.1s0,0,0-0.1s0,0,0-0.1s0,0,0-0.1s0,0,0-0.1s0,0,0-0.1s0,0,0-0.1s0,0,0-0.1
			s0,0,0-0.1s0,0,0-0.1c0.2-1.4,0-2.9-0.7-4.2l-1.3-2.2c-0.3-0.5-0.4-1.1-0.4-1.6c0.2-0.6,0.7-1.2,1.3-1.6c1.5-0.9,3.5-0.4,4.4,1.1
			l7.3,12.2c0.9,1.4,2.8,1.8,4.2,0.9c0.9-0.5,1.4-1.4,1.5-2.3c0,0,0,0,0-0.1s0,0,0-0.1s0,0,0-0.1s0,0,0-0.1s0,0,0-0.1s0,0,0-0.1
			s0,0,0-0.1s0,0,0-0.1s0,0,0-0.1s0,0,0-0.1s0,0,0-0.1s0,0,0-0.1s0,0,0-0.1s0,0,0-0.1s0,0,0-0.1s0,0,0-0.1s0,0,0-0.1s0,0,0-0.1
			s0,0,0-0.1s0,0,0-0.1c0.1-0.7,0-1.5-0.4-2.2l-0.7-1.1c0,0,0,0,0,0l-1.4-2.3c-0.3-0.5-0.4-1.1-0.4-1.6c0.2-0.6,0.7-1.2,1.3-1.6
			c1.5-0.9,3.5-0.4,4.4,1.1l1.8,3.1c1,1.3,2.8,1.7,4.2,0.8c0.9-0.5,1.4-1.4,1.5-2.3c0,0,0,0,0-0.1s0,0,0-0.1s0,0,0-0.1s0,0,0-0.1
			s0,0,0-0.1s0,0,0-0.1s0,0,0-0.1s0,0,0-0.1s0,0,0-0.1s0,0,0-0.1s0,0,0-0.1s0,0,0-0.1s0,0,0-0.1s0,0,0-0.1s0,0,0-0.1s0,0,0-0.1
			s0,0,0-0.1s0,0,0-0.1s0,0,0-0.1s0,0,0-0.1c0.1-0.7,0-1.5-0.4-2.2l-6.6-11.1c-0.3-0.5-0.4-1.1-0.4-1.6c0.2-0.6,0.7-1.2,1.3-1.6
			c1.5-0.9,3.5-0.4,4.4,1.1c0,0,2.1,3.4,2.1,3.3c2,2.4,5.5,3.1,8.2,1.5c1.6-1,2.7-2.5,3-4.3c0,0,0,0,0-0.1s0,0,0-0.1s0,0,0-0.1
			s0,0,0-0.1s0,0,0-0.1s0,0,0-0.1s0,0,0-0.1s0,0,0-0.1s0,0,0-0.1s0,0,0-0.1s0,0,0-0.1s0,0,0-0.1s0,0,0-0.1s0,0,0-0.1s0,0,0-0.1
			s0,0,0-0.1s0,0,0-0.1s0,0,0-0.1s0,0,0-0.1s0,0,0-0.1c0.3-1.5,0.1-3.1-0.8-4.5l-9.7-16.3l0,0l-3.8-6.3l-2.7-4.5l0,0l-2.4-4
			c0-0.1-0.1-0.1-0.1-0.1C234.7,155.6,234.6,155.5,234.5,155.4C234.6,155.5,234.6,155.4,234.5,155.4z M210.5,171.2
			c-2.9,1.7-6.7,0.8-8.4-2.1c-0.7-1.1-0.9-2.4-0.8-3.7c0.4-1.4,1.4-2.7,2.8-3.5c2.9-1.7,6.7-0.8,8.4,2.1c0.7,1.1,0.9,2.4,0.8,3.7
			C212.8,169.1,211.9,170.4,210.5,171.2z M194.4,145.8c2.9-1.7,6.7-0.8,8.4,2.1c0.7,1.1,0.9,2.4,0.8,3.7c-0.4,1.4-1.4,2.7-2.7,3.5
			c-2.9,1.7-6.7,0.8-8.4-2.1c-0.7-1.1-0.9-2.4-0.8-3.7C192.1,147.9,193.1,146.6,194.4,145.8z M184.9,129.7c2.9-1.7,6.7-0.8,8.4,2.1
			c0.7,1.1,0.9,2.4,0.8,3.7c-0.4,1.4-1.4,2.7-2.8,3.5c-2.9,1.7-6.7,0.8-8.4-2.1c-0.7-1.1-0.9-2.4-0.8-3.7
			C182.6,131.8,183.5,130.6,184.9,129.7z"/>
	</g>
</g>
<g>
	<circle class="st2" cx="482.4" cy="157.6" r="49.9"/>
	<g>
		<g>
			<g id="path3139_5_">
				<path class="st3" d="M488.1,99.4L488.1,99.4c-1.5-1.6-3.7-2.5-6.1-2.5s-4.5,1-6,2.5h0c-1.5,1.6-2.5,3.7-2.5,6.2
					c0,2.4,1,4.6,2.5,6.1l0,0c1.5,1.6,3.6,2.5,6,2.5c2.4,0,4.5-1,6.1-2.5l0,0c1.5-1.6,2.5-3.7,2.5-6.1
					C490.6,103.1,489.7,100.9,488.1,99.4L488.1,99.4z M482,218.4L482,218.4c2.4,0,4.5-1,6.1-2.5l0,0c1.5-1.5,2.5-3.7,2.5-6.1
					c0-2.4-0.9-4.6-2.5-6.2h0c-1.5-1.6-3.7-2.6-6.1-2.6s-4.5,1-6,2.6h0c-1.5,1.6-2.5,3.7-2.5,6.2c0,2.4,1,4.6,2.5,6.1l0,0
					C477.5,217.4,479.7,218.4,482,218.4L482,218.4z M528.6,192L528.6,192c2.1-0.6,4-1.9,5.2-4l0.2-0.3l0,0c1-2,1.2-4.3,0.7-6.3
					c-0.6-2.2-1.9-4.1-4-5.3l-0.1-0.1c-2-1.1-4.3-1.4-6.4-0.8c-2.1,0.5-4,2-5.2,4.1c-1.2,2.1-1.4,4.4-0.9,6.6c0.6,2.1,1.9,4.1,4,5.3
					h0C524.1,192.4,526.4,192.6,528.6,192L528.6,192L528.6,192z M490.8,148.7L490.8,148.7c-2.2-2.3-5.3-3.7-8.8-3.7
					s-6.5,1.4-8.7,3.7c-2.2,2.3-3.6,5.4-3.6,8.9s1.4,6.6,3.6,8.9c2.2,2.3,5.3,3.7,8.7,3.7c3.4,0,6.5-1.4,8.8-3.7
					c2.2-2.3,3.6-5.4,3.6-8.9S493,151,490.8,148.7L490.8,148.7z M485.9,133.9L485.9,133.9c5,0.8,9.4,3.3,12.9,6.8h0
					c0.5,0.6,1.1,1.2,1.6,1.8l8.5-5c-1.2-3.5-1.2-7.2-0.3-10.7c1.2-4.6,4.2-8.8,8.6-11.4l0.1-0.1c4.4-2.5,9.3-3,13.8-1.8
					c4.5,1.2,8.6,4.2,11.2,8.8v0c2.5,4.5,3,9.6,1.8,14.2c-1.2,4.6-4.2,8.8-8.6,11.4l-1.2,0.7h-0.1c-4.1,2-8.6,2.3-12.7,1.2
					c-3.4-0.9-6.5-2.8-8.9-5.6l-8.5,5c1,2.6,1.5,5.5,1.5,8.5c0,3-0.5,5.9-1.5,8.5l8.5,5c2.4-2.8,5.5-4.6,8.9-5.6
					c4.5-1.3,9.6-0.7,14,1.9l0.3,0.1v0c4.2,2.6,7.1,6.7,8.3,11.2c1.2,4.6,0.7,9.7-1.8,14.2l-0.2,0.3l0,0l0,0
					c-2.5,4.3-6.6,7.2-11,8.5c-4.5,1.2-9.6,0.7-14-1.9v0c-4.4-2.6-7.4-6.8-8.6-11.4c-0.9-3.4-0.9-7.1,0.3-10.6l-8.5-5
					c-0.5,0.6-1,1.2-1.6,1.7l0,0c-3.4,3.5-7.9,5.9-12.9,6.7v10c3.5,0.8,6.7,2.6,9.2,5.1l0,0l0,0c3.3,3.4,5.4,8.1,5.4,13.2
					c0,5.1-2.1,9.8-5.4,13.2l0,0.1l0,0c-3.4,3.4-8,5.5-13,5.5c-5,0-9.7-2.1-13-5.5h0v-0.1c-3.3-3.4-5.4-8.1-5.4-13.2
					c0-5.2,2.1-9.9,5.4-13.2v0h0c2.5-2.5,5.7-4.3,9.2-5.1v-10c-5-0.8-9.4-3.2-12.8-6.7l0,0c-4.2-4.3-6.9-10.3-6.9-17
					c0-6.6,2.7-12.6,6.9-16.9h0c3.4-3.5,7.9-5.9,12.8-6.8v-10c-3.5-0.8-6.7-2.6-9.2-5.1h0v0c-3.3-3.4-5.4-8.1-5.4-13.2
					c0-5.1,2.1-9.8,5.4-13.2l0,0l0,0c3.4-3.4,8-5.5,13-5.5c5.1,0,9.7,2.1,13,5.5v0h0c3.3,3.4,5.4,8.1,5.4,13.2
					c0,5.2-2.1,9.8-5.4,13.2l0,0c-2.5,2.5-5.7,4.3-9.2,5.1L485.9,133.9L485.9,133.9z M533.8,127.2l-0.1-0.1c-1.2-2-3-3.4-5.1-3.9
					c-2.1-0.6-4.5-0.3-6.5,0.9h0c-2,1.2-3.4,3.1-4,5.3c-0.6,2.1-0.3,4.5,0.9,6.6l0,0.1c1.2,2,3.1,3.4,5.2,4c2.1,0.6,4.5,0.4,6.5-0.9
					l0.1-0.1c2-1.2,3.3-3.1,3.9-5.2C535.2,131.7,534.9,129.3,533.8,127.2L533.8,127.2"/>
			</g>
		</g>
	</g>
</g>
<g>
	<g>
		<line class="st4" x1="319" y1="126.4" x2="372.3" y2="126.4"/>
		<g>
			<polygon class="st5" points="366.3,131.5 371.4,126.4 366.3,121.4 370.6,121.4 375.7,126.4 370.6,131.5 			"/>
		</g>
	</g>
</g>
<g>
	<g>
		<line class="st4" x1="375.7" y1="164.3" x2="322.4" y2="164.3"/>
		<g>
			<polygon class="st5" points="328.4,159.2 323.3,164.3 328.4,169.4 324.1,169.4 319,164.3 324.1,159.2 			"/>
		</g>
	</g>
</g>
<g>
	<path d="M148.2,52.5h1.7l5.1-6.4h5.9l-7.1,8.5l7.1,9.5h-6l-5.2-7.3h-1.6v7.3h-4.9V37.3h4.9L148.2,52.5L148.2,52.5z"/>
	<path d="M176.5,51.1c-1.4-0.7-3.7-1.5-5.7-1.5c-1.8,0-2.8,0.7-2.8,1.6c0,1,1.3,1.3,2.9,1.5l1.6,0.2c3.9,0.6,6.1,2.3,6.1,5.4
		c0,3.7-3.1,6.1-8.3,6.1c-2.4,0-5.7-0.5-8-2.1l1.9-3.7c1.5,1,3.4,1.8,6.1,1.8c2.2,0,3.3-0.6,3.3-1.7c0-0.9-0.9-1.4-3-1.7l-1.5-0.2
		c-4.2-0.6-6.2-2.4-6.2-5.5c0-3.7,2.9-5.9,7.6-5.9c2.9,0,5.1,0.5,7.5,1.7L176.5,51.1z"/>
	<path d="M195.4,48.1v-2h4.7v25.4h-4.8v-9.3c-1.2,1.4-2.9,2.3-5.3,2.3c-5,0-8.7-4.1-8.7-9.5s3.8-9.5,8.7-9.5
		C192.4,45.6,194.2,46.6,195.4,48.1z M186.2,55.1c0,2.8,1.8,5,4.6,5c2.8,0,4.6-2.1,4.6-5s-1.9-5-4.6-5
		C188,50.1,186.2,52.3,186.2,55.1z"/>
	<path d="M210,64.1h-4.9V37.3h4.9V64.1z"/>
	<path d="M226.2,38.1c8.1,0,13.5,5.2,13.5,13s-5.4,13-13.5,13h-10.7v-26H226.2z M220.7,42.9v16.3h5.5c5.5,0,8.1-3.4,8.1-8.1
		c0-4.8-2.7-8.2-8.1-8.2H220.7z"/>
	<path d="M255,38.1c6.1,0,9.9,2.2,9.9,7.2c0,2.6-1.6,4.7-3.8,5.5c2.4,0.8,4.3,3,4.3,5.8c0,5-3.6,7.4-9.8,7.4h-11.2v-26L255,38.1
		L255,38.1z M249.6,42.6v6.1h5.3c2.6,0,4.6-0.5,4.6-3.1c0-2.5-2-3-4.6-3H249.6z M249.6,53.3v6.2l5.8,0c2.9,0,4.7-0.7,4.7-3.2
		c0-2.4-1.8-3.1-4.7-3.1C255.4,53.3,249.6,53.3,249.6,53.3z"/>
</g>
<g>
	<path class="st6" d="M171.5,273.2c-1.4,1.6-3.3,2.5-5.5,2.5c-4,0-7-2.9-7-6.9c0-4.7,3.6-8.2,8.2-8.2c1.5,0,4.3,0.4,5.9,2.9
		l-1.4,1.1c-1-1.6-2.8-2.3-4.6-2.3c-3.4,0-6.1,2.8-6.1,6.3c0,3.1,2.2,5.3,5.2,5.3c1.6,0,3.1-0.7,4.2-1.9L171.5,273.2z"/>
	<path class="st6" d="M184.1,269.9c0,3.1-2.4,5.7-5.7,5.7c-2.9,0-4.8-2-4.8-4.7c0-3.1,2.4-5.7,5.7-5.7
		C182.1,265.2,184.1,267.2,184.1,269.9z M175.3,270.8c0,1.9,1.3,3.2,3.2,3.2c2.2,0,3.8-1.8,3.8-4c0-1.9-1.3-3.2-3.2-3.2
		C176.9,266.8,175.3,268.6,175.3,270.8z"/>
	<path class="st6" d="M203.4,268.6c0,0.4,0,0.7-0.1,1.1l-1.2,5.7h-1.7l1.2-5.6c0.1-0.3,0.1-0.6,0.1-0.9c0-1.2-0.7-2.1-2.3-2.1
		c-1.7,0-3,1.1-3.5,3l-1.2,5.5H193l1.2-5.6c0.3-1.5-0.2-2.9-2.2-2.9c-1.7,0-3.1,1.1-3.5,3l-1.2,5.5h-1.7l2.1-10h1.7l-0.2,1.1
		c1-1,2.1-1.4,3.2-1.4c1.7,0,2.8,0.8,3.3,2c1.1-1.5,2.6-2,4-2C202.1,265.2,203.4,266.6,203.4,268.6z"/>
	<path class="st6" d="M207.5,273.8l-1.2,5.8h-1.7l3-14.2h1.7l-0.2,1.1c0.8-0.8,1.9-1.4,3.4-1.4c2.5,0,4.3,1.9,4.3,4.5
		c0,3.2-2.5,6-5.7,6C209.3,275.6,208.1,274.9,207.5,273.8z M208.1,270.4c-0.3,2,0.9,3.6,2.9,3.6c2.2,0,3.9-1.9,3.9-4.1
		c0-1.7-1.1-3-2.9-3C210,266.8,208.4,268.3,208.1,270.4z"/>
	<path class="st6" d="M228,271.3c-0.6,3-2.8,4.3-5.2,4.3c-2.2,0-3.9-1.2-3.9-3.5c0-0.4,0-0.7,0.1-1.1l1.2-5.6h1.7l-1.2,5.6
		c-0.1,0.3-0.1,0.6-0.1,0.9c0,1.4,1,2.1,2.3,2.1c1.6,0,2.9-1,3.4-3l1.2-5.6h1.7L228,271.3z"/>
	<path class="st6" d="M239,267h-4l-1,4.7c-0.3,1.6,0.4,2.3,1.5,2.3c0.7,0,1.4-0.2,2-0.7l0.7,1.3c-0.8,0.6-1.8,1-3,1
		c-2.3,0-3.6-1.4-3-4l1-4.7h-2.1l0.3-1.6h2.1l0.7-3.1h1.7l-0.7,3.1h4.1L239,267z"/>
	<path class="st6" d="M248.5,274.2c-1.2,1-2.4,1.4-4,1.4c-2.9,0-4.6-1.9-4.6-4.4c0-2.7,1.9-6.1,5.7-6.1c2.5,0,4.1,1.5,4.1,4
		c0,0.6-0.1,1.4-0.3,1.8h-7.7v0.2c0,1.8,1.1,2.9,3,2.9c1.2,0,2.1-0.4,3-1.1L248.5,274.2z M241.9,269.6h6.1c0-0.1,0-0.3,0-0.4
		c0-1.6-1-2.5-2.5-2.5C243.5,266.7,242.3,268.1,241.9,269.6z"/>
</g>
<g>
	<path class="st6" d="M461.3,263.7c-1.6-1.1-3.2-1.5-4.6-1.5c-2.6,0-3.6,1.4-3.6,2.6c0,1.2,0.9,1.9,2.7,2.2l1.2,0.2
		c2.4,0.4,4.3,1.5,4.3,3.8c0,2.6-2.3,4.6-6,4.6c-1.5,0-4.1-0.4-5.9-2l1.1-1.5c1.4,1.3,3.7,1.8,4.9,1.8c2.4,0,4-1.1,4-2.6
		c0-1.2-1-1.9-3-2.2l-1.2-0.2c-2.4-0.4-4-1.6-4-3.7c0-2.3,1.8-4.6,5.7-4.6c1.8,0,3.8,0.4,5.6,1.7L461.3,263.7z"/>
	<path class="st6" d="M471,267h-4l-1,4.7c-0.3,1.6,0.4,2.3,1.5,2.3c0.7,0,1.4-0.2,2-0.7l0.7,1.3c-0.8,0.6-1.8,1-3,1
		c-2.3,0-3.6-1.4-3-4l1-4.7h-2.1l0.3-1.6h2.1l0.7-3.1h1.7l-0.7,3.1h4L471,267z"/>
	<path class="st6" d="M482.5,269.9c0,3.1-2.5,5.7-5.7,5.7c-2.9,0-4.8-2-4.8-4.7c0-3.1,2.5-5.7,5.7-5.7
		C480.6,265.2,482.5,267.2,482.5,269.9z M473.8,270.8c0,1.9,1.3,3.2,3.2,3.2c2.2,0,3.8-1.8,3.8-4c0-1.9-1.3-3.2-3.2-3.2
		C475.4,266.8,473.8,268.6,473.8,270.8z"/>
	<path class="st6" d="M487,269.9l-1.2,5.5h-1.7l2.1-10h1.7l-0.2,1.1c0.9-1,2-1.3,3-1.3c0.6,0,1.3,0.1,1.8,0.4l-0.7,1.6
		c-0.4-0.2-1-0.4-1.5-0.4C488.8,266.8,487.5,267.8,487,269.9z"/>
	<path class="st6" d="M501.9,267l0.4-1.6h1.7l-2.1,10h-1.7l0.2-1.1c-0.8,0.8-1.9,1.3-3.3,1.3c-2.5,0-4.3-1.9-4.3-4.5
		c0-3.2,2.5-6,5.7-6C500.2,265.2,501.4,265.9,501.9,267z M501.3,270.5c0.3-2-0.9-3.6-2.9-3.6c-2.2,0-3.9,1.9-3.9,4.1
		c0,1.7,1.1,3,2.9,3C499.4,274,501,272.5,501.3,270.5z"/>
	<path class="st6" d="M514.8,274.7c-0.7,3.2-2.7,5-5.4,5c-1.8,0-3.3-0.5-4.5-1.5l1-1.3c0.9,0.8,2.1,1.3,3.5,1.3
		c1.9,0,3.3-1.3,3.7-3.4l0.1-0.5c-0.8,0.7-1.8,1.1-3,1.1c-2.7,0-4.6-1.9-4.6-4.4c0-3.2,2.5-5.9,5.6-5.9c1.8,0,2.9,0.8,3.5,1.9
		l0.4-1.6h1.7L514.8,274.7z M514.1,270c0.1-1.8-1.1-3.2-2.9-3.2c-2.2,0-3.8,1.7-3.8,4.1c0,1.7,1.2,2.9,2.9,2.9
		C512.4,273.8,513.9,272.2,514.1,270z"/>
	<path class="st6" d="M526.8,274.2c-1.2,1-2.4,1.4-4,1.4c-2.9,0-4.6-1.9-4.6-4.4c0-2.7,1.9-6.1,5.7-6.1c2.5,0,4.1,1.5,4.1,4
		c0,0.6-0.1,1.4-0.3,1.8H520v0.2c0,1.8,1.1,2.9,3,2.9c1.2,0,2.1-0.4,3-1.1L526.8,274.2z M520.2,269.6h6.1c0-0.1,0-0.3,0-0.4
		c0-1.6-1-2.5-2.5-2.5C521.8,266.7,520.7,268.1,520.2,269.6z"/>
</g>
<g>
	<path d="M446,53.4h-2.4v10.7h-5.2v-26h5.2v10.5h2.5l8.6-10.5h6.5l-10.9,12.7L462,64.1h-6.7L446,53.4z"/>
	<path d="M480.9,64.1h-4.7v-2c-1.2,1.5-2.9,2.5-5.4,2.5c-5,0-8.7-4.1-8.7-9.5s3.8-9.5,8.7-9.5c2.5,0,4.2,1,5.4,2.5v-2h4.7V64.1z
		 M467,55.1c0,2.8,1.8,5,4.6,5c2.8,0,4.6-2.1,4.6-5s-1.9-5-4.6-5C468.8,50.1,467,52.3,467,55.1z"/>
	<path d="M497.5,42.2c-0.9-0.5-1.9-0.8-3-0.8c-1.4,0-2.1,0.8-2.1,2.5v2.2h5.6v4.3h-5.6v13.7h-4.9V50.4h-3.4v-4.3h3.4v-2.2
		c0-4.2,2.2-7,6.4-7c2.2,0,3.8,0.6,5.1,1.4L497.5,42.2z"/>
	<path d="M506.6,52.5h1.7l5.1-6.4h5.9l-7.1,8.5l7.2,9.5h-6l-5.2-7.3h-1.6v7.3h-4.9V37.3h4.9L506.6,52.5L506.6,52.5z"/>
	<path d="M538.9,64.1h-4.7v-2c-1.2,1.5-2.9,2.5-5.4,2.5c-5,0-8.7-4.1-8.7-9.5s3.8-9.5,8.7-9.5c2.5,0,4.2,1,5.4,2.5v-2h4.7V64.1z
		 M525,55.1c0,2.8,1.8,5,4.6,5c2.8,0,4.6-2.1,4.6-5s-1.9-5-4.6-5C526.8,50.1,525,52.3,525,55.1z"/>
</g>
<path class="st7" d="M677.8,512.6H24.4c-4.2,0-7.5-3.4-7.5-7.5V302.9c0-4.2,3.4-7.5,7.5-7.5h653.3c4.2,0,7.5,3.4,7.5,7.5v202.2
	C685.3,509.2,681.9,512.6,677.8,512.6z"/>
<g>
	<path d="M52.3,331.3h2v3.6c-0.4,0.3-0.9,0.5-1.5,0.6s-1.2,0.2-1.8,0.2c-0.8,0-1.5-0.1-2.2-0.4s-1.3-0.6-1.9-1.1
		c-0.5-0.5-1-1.2-1.3-2s-0.5-1.8-0.5-3c0-1.2,0.2-2.3,0.5-3.1c0.4-0.8,0.8-1.5,1.4-2c0.6-0.5,1.2-0.9,1.9-1.1s1.4-0.3,2.1-0.3
		c0.7,0,1.3,0.1,1.8,0.2c0.5,0.1,0.9,0.3,1.2,0.4v3.7h-2v-2c-0.4-0.1-0.8-0.1-1.2-0.1c-0.5,0-0.9,0.1-1.3,0.3
		c-0.4,0.2-0.8,0.4-1,0.8s-0.5,0.8-0.7,1.4c-0.2,0.5-0.2,1.2-0.2,1.9c0,0.6,0.1,1.2,0.2,1.8s0.4,1,0.7,1.4s0.7,0.7,1.1,0.9
		c0.4,0.2,0.9,0.3,1.5,0.3c0.4,0,0.8,0,1.2-0.1C52.3,333.5,52.3,331.3,52.3,331.3z"/>
	<path d="M56.2,323.1c0.3,0,0.6-0.1,0.9-0.1s0.6-0.1,1-0.1c0.3,0,0.6,0,0.9,0c0.3,0,0.6,0,0.8,0c0.6,0,1.2,0.1,1.7,0.2
		c0.6,0.1,1.1,0.3,1.5,0.6c0.5,0.3,0.8,0.6,1.1,1.1c0.3,0.5,0.4,1,0.4,1.7c0,0.5-0.1,1-0.2,1.3s-0.2,0.7-0.4,1s-0.4,0.5-0.7,0.8
		s-0.5,0.4-0.8,0.6l3,5.5h-2.8l-2.5-4.9h-1.5v4.9h-2.5C56.2,335.6,56.2,323.1,56.2,323.1z M60,325c-0.2,0-0.5,0-0.8,0
		s-0.4,0-0.6,0.1v3.6h1c0.7,0,1.2-0.2,1.7-0.5s0.7-0.8,0.7-1.5c0-0.5-0.2-1-0.5-1.3C61.1,325.1,60.6,325,60,325z"/>
	<path d="M67.1,323h8.2v2.2h-5.8v2.9h5.3v2.2h-5.3v3.1h5.9v2.2h-8.3V323z"/>
	<path d="M83.8,332.8H80l-0.9,2.8h-2.5l4.1-12.6h2.5l4,12.6h-2.6L83.8,332.8z M80.6,330.8h2.7l-1.3-4.2h-0.2L80.6,330.8z"/>
	<path d="M89.5,333.6h2.1V325h-1.7v2.2h-2V323h9.8v4.1h-2V325H94v8.6h2v2h-6.5L89.5,333.6L89.5,333.6z"/>
	<path d="M99.4,323h8.2v2.2h-5.8v2.9h5.3v2.2h-5.3v3.1h5.9v2.2h-8.3V323z"/>
	<path d="M121.8,333.6h2.1V325h-1.7v2.2h-2V323h9.8v4.1h-2V325h-1.7v8.6h2v2h-6.5L121.8,333.6L121.8,333.6z"/>
	<path d="M137.6,332.8h-3.8l-0.9,2.8h-2.5l4.1-12.6h2.5l4,12.6h-2.6L137.6,332.8z M134.5,330.8h2.7l-1.3-4.2h-0.2L134.5,330.8z"/>
	<path d="M150.8,325.9c0,0.3,0,0.6-0.1,0.9s-0.2,0.6-0.4,0.9s-0.4,0.5-0.7,0.7s-0.6,0.3-1,0.4v0.1c0.4,0.1,0.7,0.2,1,0.3
		s0.6,0.3,0.8,0.6c0.2,0.2,0.4,0.6,0.6,0.9c0.1,0.4,0.2,0.8,0.2,1.3c0,0.6-0.1,1.2-0.4,1.7c-0.3,0.5-0.6,0.9-1.1,1.2
		c-0.5,0.3-1,0.5-1.6,0.7c-0.6,0.1-1.2,0.2-1.8,0.2c-0.2,0-0.5,0-0.8,0s-0.7,0-1,0c-0.4,0-0.7,0-1.1-0.1c-0.4,0-0.7-0.1-1-0.2v-12.4
		c0.2,0,0.5-0.1,0.8-0.1s0.6-0.1,0.9-0.1s0.7,0,1,0c0.4,0,0.7,0,1.1,0c0.6,0,1.2,0,1.7,0.1c0.6,0.1,1.1,0.2,1.5,0.5s0.8,0.5,1.1,1
		C150.7,324.8,150.8,325.3,150.8,325.9z M145.5,328.3c0.2,0,0.4,0,0.6,0c0.2,0,0.4,0,0.6,0c0.5-0.1,0.9-0.4,1.2-0.6
		c0.3-0.3,0.5-0.7,0.5-1.1c0-0.3-0.1-0.6-0.2-0.8s-0.3-0.4-0.5-0.5s-0.4-0.2-0.7-0.2c-0.3,0-0.5-0.1-0.8-0.1c-0.3,0-0.6,0-0.9,0
		s-0.5,0-0.6,0v3.3L145.5,328.3L145.5,328.3z M146.3,333.7c0.3,0,0.6,0,0.9-0.1s0.5-0.2,0.8-0.3c0.2-0.1,0.4-0.3,0.5-0.6
		s0.2-0.5,0.2-0.8c0-0.4-0.1-0.7-0.2-0.9c-0.2-0.2-0.4-0.4-0.6-0.5s-0.5-0.2-0.8-0.2c-0.3,0-0.6,0-0.9,0h-1.3v3.4c0.1,0,0.2,0,0.3,0
		c0.1,0,0.3,0,0.4,0s0.3,0,0.5,0C146,333.7,146.1,333.7,146.3,333.7z"/>
	<path d="M159.4,330.4h2.2v5.1h-8.3V323h2.5v10.4h3.6L159.4,330.4L159.4,330.4z"/>
	<path d="M164,323h8.2v2.2h-5.8v2.9h5.3v2.2h-5.3v3.1h5.9v2.2H164V323z"/>
	<path d="M186.2,327.3c0.5-0.3,1.1-0.5,1.7-0.6c0.6-0.1,1.3-0.2,1.9-0.2c0.6,0,1.1,0.1,1.5,0.3s0.7,0.4,0.9,0.8
		c0.2,0.3,0.4,0.6,0.4,1s0.1,0.8,0.1,1.2c0,0.5,0,0.9,0,1.5c0,0.5,0,1-0.1,1.5c0,0.6,0,1.2,0.1,1.7h1.2v1.2h-2.4l-0.2-1.4h-0.1
		c-0.1,0.1-0.2,0.2-0.3,0.4c-0.1,0.2-0.3,0.3-0.6,0.5c-0.2,0.2-0.5,0.3-0.9,0.4c-0.3,0.1-0.7,0.2-1.2,0.2c-0.9,0-1.6-0.2-2.1-0.7
		c-0.5-0.5-0.8-1.1-0.8-1.9c0-0.6,0.1-1.1,0.4-1.5c0.3-0.4,0.7-0.7,1.2-0.9c0.5-0.2,1.1-0.3,1.8-0.4c0.7,0,1.5,0,2.4,0.1
		c0.1-0.5,0.1-1,0-1.4s-0.1-0.7-0.3-0.9c-0.1-0.2-0.4-0.4-0.6-0.5s-0.6-0.1-1-0.1c-0.5,0-1.1,0.1-1.6,0.2c-0.5,0.1-0.9,0.3-1.3,0.5
		L186.2,327.3z M188.9,334.5c0.3,0,0.6,0,0.9-0.2c0.3-0.1,0.5-0.2,0.8-0.4c0.2-0.2,0.4-0.4,0.5-0.5s0.2-0.4,0.3-0.6v-1.3
		c-0.6-0.1-1.2-0.2-1.7-0.2c-0.5,0-1,0.1-1.4,0.2c-0.4,0.1-0.7,0.3-0.9,0.5c-0.2,0.2-0.3,0.5-0.3,0.9c0,0.4,0.1,0.7,0.4,1
		C187.8,334.4,188.3,334.5,188.9,334.5z"/>
	<path d="M203,328c-0.3-0.1-0.6-0.2-0.9-0.2c-0.3-0.1-0.6-0.1-0.9-0.1c-1.2,0-2.1,0.3-2.6,0.8s-0.9,1.4-0.9,2.6c0,0.5,0.1,1,0.2,1.4
		s0.4,0.8,0.7,1s0.7,0.5,1.1,0.7c0.4,0.2,0.9,0.2,1.4,0.2c0.6,0,1.1-0.1,1.6-0.3s1-0.5,1.3-0.8l0.6,1c-0.2,0.1-0.4,0.3-0.6,0.5
		s-0.5,0.3-0.9,0.4s-0.7,0.2-1.1,0.3s-0.8,0.1-1.3,0.1c-0.8,0-1.5-0.1-2.1-0.3c-0.6-0.2-1.1-0.5-1.5-1c-0.4-0.4-0.7-0.9-0.9-1.5
		c-0.2-0.6-0.3-1.2-0.3-1.9c0-0.8,0.1-1.4,0.3-2c0.2-0.6,0.5-1.1,0.9-1.5c0.4-0.4,0.9-0.7,1.4-0.9c0.6-0.2,1.2-0.3,1.9-0.3
		c0.9,0,1.6,0.1,2.2,0.2c0.6,0.2,1,0.3,1.4,0.5l0,0v2.5H203L203,328L203,328z"/>
	<path d="M206.4,326.6h2.1v-1.8l1.4-0.4v2.2h4.8v1.2H210v4.2c0,0.9,0.2,1.5,0.6,1.9s1,0.6,1.8,0.6c0.5,0,1-0.1,1.4-0.3
		c0.4-0.2,0.8-0.4,1.1-0.7l0.5,1.1c-0.4,0.3-0.9,0.6-1.5,0.8c-0.6,0.2-1.2,0.3-1.8,0.3c-0.5,0-0.9-0.1-1.4-0.2
		c-0.4-0.1-0.8-0.4-1.1-0.6s-0.6-0.7-0.8-1.1c-0.2-0.5-0.3-1-0.3-1.6v-4.5h-2.1L206.4,326.6L206.4,326.6z"/>
	<path d="M218.5,335.5v-1.2h3.1v-6.6h-3.1v-1.2h4.5v7.8h3.1v1.2L218.5,335.5L218.5,335.5z M221.1,324c0-0.3,0.1-0.6,0.3-0.8
		c0.2-0.2,0.5-0.4,0.8-0.4c0.4,0,0.6,0.1,0.9,0.4s0.4,0.5,0.4,0.8c0,0.3-0.1,0.6-0.4,0.8c-0.2,0.2-0.5,0.3-0.9,0.3
		c-0.3,0-0.6-0.1-0.8-0.3C221.2,324.6,221.1,324.3,221.1,324z"/>
	<path d="M232.8,333.8h0.2l2.8-7.2h1.6l-3.8,9H232l-3.9-9h1.6L232.8,333.8z"/>
	<path d="M247.7,334.4c-0.2,0.2-0.5,0.4-0.8,0.5s-0.6,0.3-1,0.4s-0.7,0.2-1.1,0.3c-0.4,0.1-0.8,0.1-1.1,0.1c-0.7,0-1.4-0.1-1.9-0.3
		c-0.6-0.2-1-0.5-1.4-1s-0.6-0.9-0.8-1.5c-0.2-0.6-0.3-1.2-0.3-1.9c0-0.8,0.1-1.4,0.3-2c0.2-0.6,0.5-1.1,0.9-1.5
		c0.4-0.4,0.9-0.7,1.4-0.9c0.6-0.2,1.2-0.3,1.9-0.3c0.5,0,1,0.1,1.5,0.2s0.9,0.4,1.3,0.8s0.7,0.9,0.9,1.5s0.3,1.5,0.2,2.5h-6.9
		c0,1.1,0.3,1.9,0.9,2.4s1.4,0.8,2.3,0.8c0.3,0,0.6,0,1-0.1s0.6-0.2,0.9-0.3c0.3-0.1,0.5-0.2,0.8-0.4s0.4-0.2,0.5-0.4L247.7,334.4z
		 M243.9,327.5c-0.4,0-0.8,0-1.1,0.1c-0.4,0.1-0.7,0.2-0.9,0.4s-0.5,0.5-0.7,0.8c-0.2,0.3-0.3,0.7-0.3,1.2h5.6
		c-0.1-0.8-0.3-1.4-0.8-1.8C245.2,327.8,244.6,327.5,243.9,327.5z"/>
	<path d="M250.7,323.1c0.5-0.1,0.9-0.2,1.5-0.2c0.5,0,1.1,0,1.6,0c0.6,0,1.1,0,1.7,0.2c0.6,0.1,1.1,0.3,1.6,0.6s0.9,0.7,1.1,1.2
		c0.3,0.5,0.4,1.1,0.4,1.9c0,0.8-0.1,1.4-0.4,1.9c-0.3,0.5-0.6,1-1.1,1.3s-1,0.6-1.6,0.7c-0.6,0.1-1.2,0.2-1.8,0.2
		c-0.1,0-0.2,0-0.3,0s-0.3,0-0.4,0s-0.3,0-0.4,0s-0.2,0-0.3,0v4.8h-1.5V323.1z M253.8,324.1c-0.3,0-0.6,0-0.9,0
		c-0.3,0-0.5,0-0.7,0.1v5.2c0.1,0,0.2,0,0.3,0s0.3,0,0.4,0c0.1,0,0.3,0,0.4,0c0.1,0,0.2,0,0.3,0c0.4,0,0.8,0,1.2-0.1
		c0.4-0.1,0.8-0.2,1.1-0.4s0.6-0.5,0.8-0.9c0.2-0.4,0.3-0.8,0.3-1.4c0-0.5-0.1-0.9-0.3-1.2c-0.2-0.3-0.4-0.6-0.7-0.8s-0.6-0.3-1-0.4
		C254.6,324.2,254.2,324.1,253.8,324.1z"/>
	<path d="M260.9,335.5v-1.2h2.4v-6.6h-2.4v-1.2h3.4l0.3,1.2h0.1c0.4-0.4,0.9-0.7,1.4-1s1.1-0.4,1.8-0.4c0.4,0,0.7,0.1,1,0.2
		s0.4,0.4,0.6,0.7c0.1,0.3,0.2,0.7,0.3,1.1s0.1,0.9,0.1,1.4l-1.3,0c0-0.8-0.1-1.3-0.2-1.7s-0.4-0.5-0.8-0.5c-0.4,0-0.7,0-1,0.2
		s-0.6,0.2-0.8,0.4c-0.2,0.2-0.4,0.3-0.6,0.5s-0.3,0.3-0.3,0.4v5.3h3.5v1.2L260.9,335.5L260.9,335.5z"/>
	<path d="M271.5,331.1c0-1.5,0.4-2.6,1.1-3.4s1.8-1.3,3.2-1.3c0.8,0,1.4,0.1,2,0.4s1,0.6,1.4,1s0.6,0.9,0.8,1.5s0.3,1.2,0.3,1.9
		c0,0.7-0.1,1.4-0.3,2s-0.5,1.1-0.8,1.5s-0.8,0.7-1.4,0.9s-1.2,0.3-1.9,0.3c-0.7,0-1.4-0.1-1.9-0.4s-1-0.6-1.4-1s-0.6-0.9-0.8-1.5
		C271.6,332.3,271.5,331.7,271.5,331.1z M273,331.1c0,0.4,0,0.8,0.1,1.3s0.3,0.8,0.5,1.1c0.2,0.3,0.5,0.6,0.9,0.8
		c0.4,0.2,0.8,0.3,1.3,0.3c1,0,1.7-0.3,2.2-0.9c0.5-0.6,0.7-1.5,0.7-2.6c0-0.4,0-0.9-0.1-1.3c-0.1-0.4-0.3-0.8-0.5-1.1
		s-0.5-0.6-0.9-0.8c-0.4-0.2-0.8-0.3-1.3-0.3c-1,0-1.7,0.3-2.1,0.9C273.2,329,273,329.9,273,331.1z"/>
	<path d="M286,335.5v-6c0-0.2,0-0.5,0-0.7c0-0.2-0.1-0.4-0.1-0.6s-0.2-0.3-0.3-0.4c-0.1-0.1-0.3-0.2-0.5-0.2c-0.4,0-0.8,0.2-1,0.5
		s-0.5,0.8-0.6,1.3v6.2H282v-9h0.9l0.3,1.1h0.1c0.1-0.2,0.2-0.4,0.4-0.5c0.1-0.2,0.2-0.3,0.4-0.4c0.1-0.1,0.3-0.2,0.5-0.3
		s0.5-0.1,0.8-0.1c0.2,0,0.4,0,0.6,0.1s0.4,0.1,0.5,0.2s0.3,0.3,0.4,0.5c0.1,0.2,0.2,0.4,0.2,0.7c0.3-0.5,0.6-0.8,0.9-1.1
		c0.3-0.3,0.8-0.4,1.4-0.4c0.4,0,0.7,0.1,1,0.2s0.4,0.3,0.6,0.6c0.1,0.2,0.2,0.5,0.3,0.9s0.1,0.7,0.1,1.1v6.4h-1.4v-6.1
		c0-0.2,0-0.5,0-0.7c0-0.2-0.1-0.4-0.1-0.6c-0.1-0.2-0.2-0.3-0.3-0.4c-0.1-0.1-0.3-0.1-0.5-0.1c-0.4,0-0.8,0.2-1.1,0.5
		s-0.5,0.8-0.6,1.4v6L286,335.5L286,335.5z"/>
	<path d="M293,331.1c0-1.5,0.4-2.6,1.1-3.4s1.8-1.3,3.2-1.3c0.8,0,1.4,0.1,2,0.4s1,0.6,1.4,1s0.6,0.9,0.8,1.5s0.3,1.2,0.3,1.9
		c0,0.7-0.1,1.4-0.3,2s-0.5,1.1-0.8,1.5s-0.8,0.7-1.4,0.9s-1.2,0.3-1.9,0.3c-0.7,0-1.4-0.1-1.9-0.4s-1-0.6-1.4-1s-0.6-0.9-0.8-1.5
		C293.1,332.3,293,331.7,293,331.1z M294.5,331.1c0,0.4,0,0.8,0.1,1.3s0.3,0.8,0.5,1.1c0.2,0.3,0.5,0.6,0.9,0.8
		c0.4,0.2,0.8,0.3,1.3,0.3c1,0,1.7-0.3,2.2-0.9c0.5-0.6,0.7-1.5,0.7-2.6c0-0.4,0-0.9-0.1-1.3c-0.1-0.4-0.3-0.8-0.5-1.1
		s-0.5-0.6-0.9-0.8c-0.4-0.2-0.8-0.3-1.3-0.3c-1,0-1.7,0.3-2.1,0.9C294.8,329,294.5,329.9,294.5,331.1z"/>
	<path d="M303.4,326.6h2.1v-1.8l1.4-0.4v2.2h4.8v1.2h-4.8v4.2c0,0.9,0.2,1.5,0.6,1.9s1,0.6,1.8,0.6c0.5,0,1-0.1,1.4-0.3
		c0.4-0.2,0.8-0.4,1.1-0.7l0.5,1.1c-0.4,0.3-0.9,0.6-1.5,0.8c-0.6,0.2-1.2,0.3-1.8,0.3c-0.5,0-0.9-0.1-1.4-0.2
		c-0.4-0.1-0.8-0.4-1.1-0.6s-0.6-0.7-0.8-1.1c-0.2-0.5-0.3-1-0.3-1.6v-4.5h-2.1L303.4,326.6L303.4,326.6z"/>
	<path d="M315.5,335.5v-1.2h3.1v-6.6h-3.1v-1.2h4.5v7.8h3v1.2L315.5,335.5L315.5,335.5z M318.1,324c0-0.3,0.1-0.6,0.3-0.8
		c0.2-0.2,0.5-0.4,0.8-0.4c0.4,0,0.6,0.1,0.9,0.4s0.4,0.5,0.4,0.8c0,0.3-0.1,0.6-0.4,0.8s-0.5,0.3-0.9,0.3c-0.3,0-0.6-0.1-0.8-0.3
		C318.2,324.6,318.1,324.3,318.1,324z"/>
	<path d="M325.4,331.1c0-1.5,0.4-2.6,1.1-3.4s1.8-1.3,3.2-1.3c0.8,0,1.4,0.1,2,0.4s1,0.6,1.4,1s0.6,0.9,0.8,1.5s0.3,1.2,0.3,1.9
		c0,0.7-0.1,1.4-0.3,2s-0.5,1.1-0.8,1.5s-0.8,0.7-1.4,0.9s-1.2,0.3-1.9,0.3c-0.7,0-1.4-0.1-1.9-0.4s-1-0.6-1.4-1s-0.6-0.9-0.8-1.5
		C325.4,332.3,325.4,331.7,325.4,331.1z M326.9,331.1c0,0.4,0,0.8,0.1,1.3s0.3,0.8,0.5,1.1c0.2,0.3,0.5,0.6,0.9,0.8
		c0.4,0.2,0.8,0.3,1.3,0.3c1,0,1.7-0.3,2.2-0.9c0.5-0.6,0.7-1.5,0.7-2.6c0-0.4,0-0.9-0.1-1.3c-0.1-0.4-0.3-0.8-0.5-1.1
		s-0.5-0.6-0.9-0.8c-0.4-0.2-0.8-0.3-1.3-0.3c-1,0-1.7,0.3-2.1,0.9C327.1,329,326.9,329.9,326.9,331.1z"/>
	<path d="M336.8,329.7c0-0.1,0-0.2,0-0.4s0-0.4,0-0.5c0-0.2,0-0.4,0-0.5c0-0.2,0-0.3-0.1-0.5h-1.2v-1.2h2.4l0.2,1.5h0.1
		c0.1-0.2,0.3-0.4,0.5-0.6s0.4-0.4,0.7-0.5s0.6-0.3,0.9-0.4s0.7-0.1,1-0.1c0.5,0,1,0.1,1.5,0.2c0.4,0.1,0.8,0.3,1.1,0.6
		c0.3,0.3,0.5,0.7,0.6,1.2s0.2,1.2,0.2,2v5.1h-1.4v-4.9c0-1-0.2-1.7-0.5-2.2s-0.9-0.8-1.8-0.8c-0.3,0-0.6,0.1-0.9,0.2
		s-0.6,0.3-0.8,0.5s-0.5,0.4-0.6,0.7s-0.3,0.5-0.4,0.9v5.6h-1.4L336.8,329.7L336.8,329.7z"/>
	<path d="M353.7,333.1c0-0.4-0.1-0.7-0.5-0.9c-0.3-0.2-0.7-0.4-1.1-0.5c-0.4-0.1-0.9-0.2-1.4-0.4c-0.5-0.1-1-0.2-1.4-0.4
		s-0.8-0.4-1.1-0.7s-0.5-0.7-0.5-1.3c0-0.5,0.1-0.8,0.3-1.2c0.2-0.3,0.5-0.6,0.8-0.8s0.7-0.4,1.1-0.5c0.4-0.1,0.9-0.1,1.4-0.1
		c0.8,0,1.6,0.1,2.2,0.3s1.1,0.4,1.5,0.7l-0.6,1.1c-0.4-0.2-0.8-0.4-1.3-0.6c-0.5-0.2-1-0.3-1.7-0.3c-0.3,0-0.5,0-0.8,0.1
		s-0.5,0.1-0.7,0.2c-0.2,0.1-0.4,0.2-0.5,0.4s-0.2,0.4-0.2,0.6c0,0.3,0.1,0.5,0.5,0.7c0.3,0.2,0.7,0.3,1.1,0.4
		c0.4,0.1,0.9,0.2,1.4,0.3s1,0.2,1.4,0.4s0.8,0.5,1.1,0.8s0.5,0.8,0.5,1.3c0,0.8-0.3,1.5-1,2c-0.6,0.5-1.6,0.8-2.9,0.8
		c-0.4,0-0.8,0-1.2-0.1c-0.4-0.1-0.7-0.2-1.1-0.3c-0.3-0.1-0.6-0.2-0.9-0.4s-0.5-0.3-0.7-0.5l0.7-1.2c0.1,0.1,0.3,0.3,0.6,0.4
		c0.2,0.1,0.5,0.3,0.8,0.4c0.3,0.1,0.6,0.2,0.9,0.3c0.3,0.1,0.7,0.1,1,0.1c0.3,0,0.6,0,0.9-0.1s0.5-0.1,0.7-0.2s0.4-0.3,0.5-0.5
		C353.7,333.6,353.7,333.4,353.7,333.1z"/>
	<path d="M374.6,332.8h-3.8l-0.9,2.8h-2.5l4.1-12.6h2.5l4,12.6h-2.6L374.6,332.8z M371.4,330.8h2.7l-1.3-4.2h-0.2L371.4,330.8z"/>
	<path d="M379.4,331.4h2v1.8c0,0,0.1,0,0.1,0c0.3,0.1,0.6,0.2,0.9,0.3c0.3,0.1,0.7,0.1,1,0.1c0.7,0,1.2-0.1,1.6-0.4s0.6-0.6,0.6-1.1
		c0-0.4-0.1-0.7-0.5-1c-0.3-0.2-0.7-0.5-1.1-0.7s-0.9-0.4-1.5-0.6s-1-0.4-1.5-0.7c-0.5-0.3-0.8-0.7-1.1-1.1c-0.3-0.4-0.5-1-0.5-1.7
		c0-0.5,0.1-1,0.3-1.5s0.5-0.8,0.9-1.2s0.8-0.6,1.4-0.8s1.1-0.3,1.8-0.3c0.7,0,1.5,0.1,2.1,0.2c0.7,0.1,1.3,0.3,1.7,0.5v3.6h-2v-2
		c0,0-0.1,0-0.1,0c-0.3-0.1-0.5-0.1-0.9-0.2c-0.3,0-0.6-0.1-0.9-0.1c-0.6,0-1,0.1-1.4,0.3c-0.3,0.2-0.5,0.5-0.5,0.9
		c0,0.4,0.1,0.7,0.5,1c0.3,0.2,0.7,0.5,1.1,0.7c0.5,0.2,0.9,0.4,1.5,0.6c0.5,0.2,1,0.5,1.5,0.8c0.5,0.3,0.8,0.7,1.1,1.1
		c0.3,0.4,0.5,1,0.5,1.7c0,0.6-0.1,1.2-0.4,1.7c-0.2,0.5-0.6,0.9-1,1.2s-0.9,0.6-1.5,0.7c-0.6,0.2-1.2,0.2-1.9,0.2
		c-0.5,0-0.9,0-1.3-0.1c-0.4-0.1-0.8-0.2-1.1-0.3s-0.6-0.2-0.9-0.3s-0.5-0.2-0.6-0.3L379.4,331.4L379.4,331.4z"/>
</g>
<g>
	<path d="M78.7,361.1h2v1.8c0,0,0.1,0,0.1,0c0.3,0.1,0.6,0.2,0.9,0.3s0.7,0.1,1.1,0.1c0.7,0,1.2-0.1,1.6-0.4
		c0.4-0.3,0.6-0.6,0.6-1.1c0-0.4-0.2-0.7-0.5-1c-0.3-0.2-0.7-0.5-1.1-0.7s-0.9-0.4-1.5-0.6s-1-0.4-1.5-0.7c-0.4-0.3-0.8-0.7-1.1-1.1
		c-0.3-0.4-0.5-1-0.5-1.7c0-0.5,0.1-1,0.3-1.5s0.5-0.8,0.9-1.2s0.8-0.6,1.4-0.8s1.1-0.3,1.8-0.3c0.7,0,1.4,0.1,2.2,0.2
		c0.7,0.1,1.3,0.3,1.7,0.5v3.6h-2v-2c0,0-0.1,0-0.1,0c-0.3-0.1-0.6-0.1-0.8-0.2c-0.3,0-0.6-0.1-0.9-0.1c-0.6,0-1,0.1-1.3,0.3
		c-0.3,0.2-0.5,0.5-0.5,0.9c0,0.4,0.2,0.7,0.5,1c0.3,0.2,0.7,0.5,1.1,0.7c0.4,0.2,0.9,0.4,1.5,0.6c0.5,0.2,1,0.5,1.5,0.8
		c0.4,0.3,0.8,0.7,1.1,1.1c0.3,0.4,0.5,1,0.5,1.7c0,0.6-0.1,1.2-0.4,1.7c-0.2,0.5-0.6,0.9-1,1.2s-0.9,0.6-1.5,0.7
		c-0.6,0.2-1.2,0.2-1.9,0.2c-0.5,0-0.9,0-1.3-0.1c-0.4-0.1-0.8-0.2-1.1-0.3s-0.6-0.2-0.9-0.3s-0.5-0.2-0.6-0.3V361.1z"/>
	<path d="M89.5,352.6h8.2v2.2H92v2.9h5.3v2.2H92v3.1h5.9v2.2h-8.3V352.6z"/>
	<path d="M106.5,360.1h2.2v5.1h-8.3v-12.6h2.5V363h3.6V360.1z"/>
	<path d="M111.1,352.6h8.2v2.2h-5.8v2.9h5.3v2.2h-5.3v3.1h5.9v2.2h-8.3V352.6z"/>
	<path d="M128.6,361h2v3.6c-0.4,0.3-0.9,0.5-1.5,0.6c-0.6,0.2-1.2,0.2-1.8,0.2c-0.8,0-1.5-0.1-2.2-0.4s-1.3-0.6-1.9-1.1
		c-0.5-0.5-1-1.2-1.3-2s-0.5-1.8-0.5-3c0-1.2,0.2-2.3,0.6-3.1c0.4-0.8,0.8-1.5,1.4-2c0.6-0.5,1.2-0.9,1.9-1.1s1.4-0.3,2.1-0.3
		c0.7,0,1.3,0.1,1.8,0.2c0.5,0.1,0.9,0.3,1.2,0.4v3.7h-2v-2c-0.4-0.1-0.8-0.1-1.2-0.1c-0.5,0-0.9,0.1-1.3,0.3s-0.8,0.4-1.1,0.8
		s-0.5,0.8-0.7,1.4c-0.2,0.5-0.2,1.2-0.2,1.9c0,0.6,0.1,1.2,0.2,1.8s0.4,1,0.7,1.4s0.7,0.7,1.1,0.9c0.4,0.2,0.9,0.3,1.5,0.3
		c0.4,0,0.8,0,1.2-0.1V361z"/>
	<path d="M133.5,363.2h2.1v-8.6h-1.7v2.2h-2v-4.1h9.8v4.1h-2v-2.2H138v8.6h2v2h-6.5L133.5,363.2L133.5,363.2z"/>
	<path d="M154.1,365.2V364h2.4v-6.6h-2.4v-1.2h3.4l0.3,1.2h0.1c0.4-0.4,0.9-0.7,1.4-1s1.1-0.4,1.8-0.4c0.4,0,0.7,0.1,1,0.2
		s0.4,0.4,0.6,0.7c0.1,0.3,0.2,0.7,0.3,1.1s0.1,0.9,0.1,1.4l-1.3,0c0-0.8-0.1-1.3-0.2-1.7s-0.4-0.5-0.8-0.5c-0.4,0-0.7,0-1,0.2
		s-0.6,0.2-0.8,0.4c-0.2,0.2-0.4,0.3-0.6,0.5s-0.3,0.3-0.3,0.4v5.3h3.4v1.2L154.1,365.2L154.1,365.2z"/>
	<path d="M165.6,365.2V364h3.1v-6.6h-3.1v-1.2h4.5v7.8h3.1v1.2L165.6,365.2L165.6,365.2z M168.2,353.7c0-0.3,0.1-0.6,0.3-0.8
		c0.2-0.2,0.5-0.4,0.8-0.4c0.4,0,0.6,0.1,0.9,0.4s0.4,0.5,0.4,0.8c0,0.3-0.1,0.6-0.4,0.8c-0.2,0.2-0.5,0.3-0.9,0.3
		c-0.3,0-0.6-0.1-0.8-0.3C168.3,354.3,168.2,354,168.2,353.7z"/>
	<path d="M180.7,352.6h2.9v9.5c0,0.1,0,0.2,0,0.4c0,0.2,0,0.3,0,0.5c0,0.2,0,0.4,0.1,0.5s0.1,0.3,0.1,0.5h1.2v1.2h-2.4l-0.2-1.4
		h-0.1c-0.3,0.5-0.6,0.8-1.2,1.1c-0.5,0.3-1.1,0.5-1.8,0.5c-1.4,0-2.3-0.4-3-1.1s-1-1.9-1-3.5c0-0.8,0.1-1.4,0.3-2s0.5-1.1,0.9-1.5
		s0.9-0.7,1.4-0.9c0.6-0.2,1.2-0.3,1.9-0.3c0.2,0,0.5,0,0.7,0c0.2,0,0.4,0,0.6,0s0.3,0.1,0.5,0.1c0.1,0,0.3,0.1,0.5,0.1v-2.5h-1.5
		L180.7,352.6L180.7,352.6z M179.6,364.2c0.7,0,1.3-0.2,1.7-0.6s0.7-0.9,0.9-1.7v-4.2c-0.3-0.2-0.6-0.3-0.9-0.4s-0.8-0.1-1.3-0.1
		c-0.9,0-1.7,0.3-2.2,0.8s-0.8,1.4-0.8,2.6c0,0.5,0,1,0.1,1.4c0.1,0.4,0.2,0.8,0.4,1.1c0.2,0.3,0.5,0.6,0.8,0.7
		S179.1,364.2,179.6,364.2z"/>
	<path d="M194.7,364.1c-0.2,0.2-0.5,0.4-0.8,0.5s-0.6,0.3-1,0.4s-0.7,0.2-1.1,0.3c-0.4,0.1-0.8,0.1-1.1,0.1c-0.7,0-1.4-0.1-1.9-0.3
		c-0.6-0.2-1-0.5-1.4-1s-0.6-0.9-0.8-1.5c-0.2-0.6-0.3-1.2-0.3-1.9c0-0.8,0.1-1.4,0.3-2c0.2-0.6,0.5-1.1,0.9-1.5
		c0.4-0.4,0.9-0.7,1.4-0.9c0.6-0.2,1.2-0.3,1.9-0.3c0.5,0,1,0.1,1.5,0.2s0.9,0.4,1.3,0.8s0.7,0.9,0.9,1.5s0.3,1.5,0.2,2.5h-6.9
		c0,1.1,0.3,1.9,0.9,2.4s1.4,0.8,2.3,0.8c0.3,0,0.6,0,1-0.1s0.6-0.2,0.9-0.3c0.3-0.1,0.5-0.2,0.8-0.4s0.4-0.2,0.5-0.4L194.7,364.1z
		 M190.9,357.2c-0.4,0-0.8,0-1.1,0.1c-0.4,0.1-0.7,0.2-0.9,0.4s-0.5,0.5-0.7,0.8c-0.2,0.3-0.3,0.7-0.3,1.2h5.6
		c-0.1-0.8-0.3-1.4-0.8-1.8S191.6,357.2,190.9,357.2z"/>
	<path d="M197.1,352.6h8.6v1.3h-3.6v9.9h3.6v1.3h-8.6v-1.3h3.6V354h-3.6V352.6z"/>
	<path d="M213,352.6h2.9v9.5c0,0.1,0,0.2,0,0.4c0,0.2,0,0.3,0,0.5c0,0.2,0,0.4,0.1,0.5s0.1,0.3,0.1,0.5h1.2v1.2h-2.4l-0.2-1.4h-0.1
		c-0.3,0.5-0.6,0.8-1.2,1.1c-0.5,0.3-1.1,0.5-1.8,0.5c-1.4,0-2.3-0.4-3-1.1s-1-1.9-1-3.5c0-0.8,0.1-1.4,0.3-2s0.5-1.1,0.9-1.5
		s0.9-0.7,1.4-0.9c0.6-0.2,1.2-0.3,1.9-0.3c0.2,0,0.5,0,0.7,0c0.2,0,0.4,0,0.6,0s0.3,0.1,0.5,0.1c0.1,0,0.3,0.1,0.5,0.1v-2.5H213
		V352.6z M211.9,364.2c0.7,0,1.3-0.2,1.7-0.6s0.7-0.9,0.9-1.7v-4.2c-0.3-0.2-0.6-0.3-0.9-0.4s-0.8-0.1-1.3-0.1
		c-0.9,0-1.7,0.3-2.2,0.8s-0.8,1.4-0.8,2.6c0,0.5,0,1,0.1,1.4c0.1,0.4,0.2,0.8,0.4,1.1c0.2,0.3,0.5,0.6,0.8,0.7
		S211.4,364.2,211.9,364.2z"/>
	<path d="M221.6,364.2c0-0.4,0.1-0.6,0.4-0.9c0.2-0.2,0.5-0.3,0.9-0.3c0.5,0,0.8,0.2,1.1,0.5s0.4,0.8,0.4,1.3c0,0.5-0.1,0.9-0.2,1.2
		s-0.4,0.6-0.6,0.9s-0.5,0.4-0.8,0.6c-0.3,0.1-0.5,0.3-0.7,0.3l-0.4-0.7c0.4-0.2,0.8-0.4,1.1-0.7s0.5-0.7,0.5-1.1
		c-0.2,0-0.3,0-0.4,0c-0.4,0-0.6-0.1-0.8-0.3C221.7,364.9,221.6,364.6,221.6,364.2z"/>
</g>
<g>
	<path d="M80.2,417.4h8v2.2h-5.5v3.1h5.1v2.2h-5.1v5.1h-2.5V417.4z"/>
	<path d="M90.6,417.5c0.3,0,0.6-0.1,0.9-0.1s0.6-0.1,0.9-0.1c0.3,0,0.6,0,0.9,0c0.3,0,0.6,0,0.8,0c0.6,0,1.2,0.1,1.7,0.2
		c0.6,0.1,1.1,0.3,1.5,0.6c0.4,0.3,0.8,0.6,1.1,1.1c0.3,0.5,0.4,1,0.4,1.7c0,0.5-0.1,1-0.2,1.3s-0.2,0.7-0.4,1s-0.4,0.5-0.7,0.8
		s-0.5,0.4-0.8,0.6l3,5.5H97l-2.5-4.9H93v4.9h-2.5V417.5z M94.3,419.4c-0.2,0-0.5,0-0.8,0s-0.4,0-0.6,0.1v3.6h1
		c0.7,0,1.2-0.2,1.7-0.5s0.7-0.8,0.7-1.5c0-0.5-0.2-1-0.5-1.3C95.5,419.6,95,419.4,94.3,419.4z"/>
	<path d="M100.9,423.7c0-1,0.1-1.9,0.3-2.8c0.2-0.8,0.5-1.5,0.9-2.1c0.4-0.6,0.9-1,1.5-1.3c0.6-0.3,1.3-0.5,2.1-0.5
		c0.9,0,1.6,0.2,2.2,0.5s1.1,0.8,1.5,1.4c0.4,0.6,0.7,1.3,0.8,2.1s0.3,1.7,0.3,2.6c0,2-0.4,3.6-1.2,4.8c-0.8,1.2-2,1.7-3.6,1.7
		c-0.9,0-1.6-0.2-2.2-0.5s-1.1-0.8-1.5-1.4c-0.4-0.6-0.7-1.3-0.8-2.1C100.9,425.5,100.9,424.6,100.9,423.7z M103.4,423.7
		c0,0.6,0,1.2,0.1,1.7s0.2,1,0.3,1.4s0.4,0.7,0.7,0.9c0.3,0.2,0.7,0.3,1.1,0.3c0.4,0,0.8-0.1,1-0.3c0.3-0.2,0.5-0.4,0.7-0.8
		c0.2-0.4,0.3-0.8,0.3-1.4c0.1-0.5,0.1-1.2,0.1-1.9c0-0.6,0-1.1-0.1-1.7s-0.1-1-0.3-1.4s-0.4-0.7-0.7-0.9s-0.7-0.4-1.2-0.4
		c-0.8,0-1.4,0.4-1.7,1.1C103.6,421.2,103.4,422.2,103.4,423.7z"/>
	<path d="M118.6,423.3l0.1-2h-0.1l-2,3.3h-0.4l-2.1-3.3h-0.1l0.1,1.8v6.9h-2.3v-12.6h2.5l2.2,3.5h0.1l2.1-3.5h2.5V430h-2.5
		L118.6,423.3L118.6,423.3z"/>
	<path d="M134.7,417.4h3v9.5c0,0.7,0.1,1.2,0.4,1.5c0.2,0.3,0.6,0.5,1.1,0.5c0.3,0,0.7-0.1,1-0.2s0.6-0.3,1-0.6l0.6,1
		c-0.2,0.2-0.4,0.3-0.6,0.5c-0.2,0.1-0.5,0.2-0.7,0.3s-0.5,0.2-0.7,0.2s-0.5,0.1-0.7,0.1c-0.4,0-0.8-0.1-1.2-0.2
		c-0.4-0.1-0.6-0.3-0.9-0.5s-0.4-0.6-0.5-1c-0.1-0.4-0.2-0.9-0.2-1.5v-8.4h-1.6L134.7,417.4L134.7,417.4z"/>
	<path d="M144.3,425.5c0-1.5,0.4-2.6,1.1-3.4s1.8-1.3,3.2-1.3c0.8,0,1.4,0.1,1.9,0.4s1,0.6,1.4,1s0.6,0.9,0.8,1.5s0.3,1.2,0.3,1.9
		c0,0.7-0.1,1.4-0.3,2s-0.5,1.1-0.8,1.5s-0.8,0.7-1.4,0.9s-1.2,0.3-1.9,0.3c-0.7,0-1.4-0.1-1.9-0.4s-1-0.6-1.4-1s-0.6-0.9-0.8-1.5
		C144.4,426.8,144.3,426.1,144.3,425.5z M145.8,425.5c0,0.4,0.1,0.8,0.1,1.3s0.3,0.8,0.5,1.1c0.2,0.3,0.5,0.6,0.9,0.8
		c0.4,0.2,0.8,0.3,1.3,0.3c0.9,0,1.7-0.3,2.2-0.9c0.5-0.6,0.7-1.5,0.7-2.6c0-0.4-0.1-0.9-0.1-1.3c-0.1-0.4-0.3-0.8-0.5-1.1
		s-0.5-0.6-0.9-0.8c-0.4-0.2-0.8-0.3-1.3-0.3c-1,0-1.7,0.3-2.1,0.9C146.1,423.5,145.8,424.3,145.8,425.5z"/>
	<path d="M161.9,422.4c-0.3-0.1-0.6-0.2-0.9-0.2c-0.3-0.1-0.6-0.1-0.9-0.1c-1.2,0-2.1,0.3-2.6,0.8s-0.9,1.4-0.9,2.6
		c0,0.5,0.1,1,0.2,1.4s0.4,0.8,0.7,1s0.7,0.5,1.1,0.7c0.4,0.2,0.9,0.2,1.4,0.2c0.6,0,1.1-0.1,1.6-0.3s1-0.5,1.3-0.8l0.6,1
		c-0.2,0.1-0.4,0.3-0.6,0.5s-0.5,0.3-0.9,0.4s-0.7,0.2-1.1,0.3s-0.8,0.1-1.3,0.1c-0.8,0-1.5-0.1-2.1-0.3c-0.6-0.2-1.1-0.5-1.5-1
		c-0.4-0.4-0.7-0.9-0.9-1.5c-0.2-0.6-0.3-1.2-0.3-1.9c0-0.8,0.1-1.4,0.3-2c0.2-0.6,0.5-1.1,0.9-1.5c0.4-0.4,0.9-0.7,1.4-0.9
		c0.6-0.2,1.2-0.3,1.9-0.3c0.9,0,1.6,0.1,2.2,0.2c0.6,0.2,1,0.3,1.4,0.5l0,0v2.5H162L161.9,422.4L161.9,422.4z"/>
	<path d="M166.8,421.7c0.5-0.3,1.1-0.5,1.7-0.6c0.6-0.1,1.3-0.2,1.9-0.2c0.6,0,1.1,0.1,1.5,0.3s0.7,0.4,0.9,0.8
		c0.2,0.3,0.4,0.6,0.4,1s0.1,0.8,0.1,1.2c0,0.5,0,0.9,0,1.5c0,0.5,0,1-0.1,1.5c0,0.6,0,1.2,0.1,1.7h1.2v1.2h-2.4l-0.2-1.4H172
		c-0.1,0.1-0.2,0.2-0.3,0.4c-0.1,0.2-0.3,0.3-0.6,0.5c-0.2,0.2-0.5,0.3-0.9,0.4c-0.3,0.1-0.7,0.2-1.2,0.2c-0.9,0-1.6-0.2-2.1-0.7
		c-0.5-0.5-0.8-1.1-0.8-1.9c0-0.6,0.1-1.1,0.4-1.5c0.3-0.4,0.7-0.7,1.2-0.9c0.5-0.2,1.1-0.3,1.8-0.4c0.7,0,1.5,0,2.4,0.1
		c0.1-0.5,0.1-1,0-1.4s-0.1-0.7-0.3-0.9c-0.1-0.2-0.4-0.4-0.6-0.5s-0.6-0.1-1-0.1c-0.5,0-1.1,0.1-1.6,0.2c-0.5,0.1-0.9,0.3-1.3,0.5
		L166.8,421.7z M169.4,428.9c0.3,0,0.6,0,0.9-0.2c0.3-0.1,0.5-0.2,0.8-0.4c0.2-0.2,0.4-0.4,0.5-0.5s0.2-0.4,0.3-0.6V426
		c-0.6-0.1-1.2-0.2-1.7-0.2c-0.5,0-1,0.1-1.4,0.2c-0.4,0.1-0.7,0.3-0.9,0.5c-0.2,0.2-0.3,0.5-0.3,0.9c0,0.4,0.1,0.7,0.4,1
		C168.4,428.8,168.8,428.9,169.4,428.9z"/>
	<path d="M176.2,421h2.1v-1.8l1.4-0.4v2.2h4.8v1.2h-4.8v4.2c0,0.9,0.2,1.5,0.6,1.9s1,0.6,1.8,0.6c0.5,0,1-0.1,1.4-0.3
		c0.4-0.2,0.8-0.4,1.1-0.7l0.5,1.1c-0.4,0.3-0.9,0.6-1.5,0.8c-0.6,0.2-1.2,0.3-1.8,0.3c-0.5,0-0.9-0.1-1.4-0.2
		c-0.4-0.1-0.8-0.4-1.1-0.6s-0.6-0.7-0.8-1.1c-0.2-0.5-0.3-1-0.3-1.6v-4.5h-2.1L176.2,421L176.2,421z"/>
	<path d="M188.3,430v-1.2h3.1v-6.6h-3.1V421h4.5v7.8h3.1v1.2L188.3,430L188.3,430z M190.9,418.5c0-0.3,0.1-0.6,0.3-0.8
		c0.2-0.2,0.5-0.4,0.8-0.4c0.4,0,0.6,0.1,0.9,0.4s0.4,0.5,0.4,0.8c0,0.3-0.1,0.6-0.4,0.8c-0.2,0.2-0.5,0.3-0.9,0.3
		c-0.3,0-0.6-0.1-0.8-0.3C191,419,190.9,418.8,190.9,418.5z"/>
	<path d="M198.2,425.5c0-1.5,0.4-2.6,1.1-3.4s1.8-1.3,3.2-1.3c0.8,0,1.4,0.1,1.9,0.4s1,0.6,1.4,1s0.6,0.9,0.8,1.5s0.3,1.2,0.3,1.9
		c0,0.7-0.1,1.4-0.3,2s-0.5,1.1-0.8,1.5s-0.8,0.7-1.4,0.9s-1.2,0.3-1.9,0.3c-0.7,0-1.4-0.1-1.9-0.4s-1-0.6-1.4-1s-0.6-0.9-0.8-1.5
		C198.3,426.8,198.2,426.1,198.2,425.5z M199.7,425.5c0,0.4,0.1,0.8,0.1,1.3s0.3,0.8,0.5,1.1c0.2,0.3,0.5,0.6,0.9,0.8
		c0.4,0.2,0.8,0.3,1.3,0.3c0.9,0,1.7-0.3,2.2-0.9c0.5-0.6,0.7-1.5,0.7-2.6c0-0.4-0.1-0.9-0.1-1.3c-0.1-0.4-0.3-0.8-0.5-1.1
		s-0.5-0.6-0.9-0.8c-0.4-0.2-0.8-0.3-1.3-0.3c-1,0-1.7,0.3-2.1,0.9C199.9,423.5,199.7,424.3,199.7,425.5z"/>
	<path d="M209.6,424.1c0-0.1,0-0.2,0-0.4s0-0.4,0-0.5c0-0.2,0-0.4,0-0.5c0-0.2,0-0.3-0.1-0.5h-1.2V421h2.4l0.2,1.5h0.1
		c0.1-0.2,0.3-0.4,0.5-0.6s0.4-0.4,0.7-0.5c0.3-0.2,0.6-0.3,0.9-0.4s0.7-0.1,1-0.1c0.6,0,1,0.1,1.5,0.2c0.4,0.1,0.8,0.3,1.1,0.6
		c0.3,0.3,0.5,0.7,0.6,1.2s0.2,1.2,0.2,2v5.1h-1.4v-4.9c0-1-0.2-1.7-0.5-2.2c-0.3-0.5-0.9-0.8-1.8-0.8c-0.3,0-0.6,0.1-0.9,0.2
		s-0.6,0.3-0.8,0.5s-0.4,0.4-0.6,0.7c-0.2,0.3-0.3,0.5-0.4,0.9v5.6h-1.4L209.6,424.1L209.6,424.1z"/>
	<path d="M226.5,427.5c0-0.4-0.1-0.7-0.4-0.9c-0.3-0.2-0.7-0.4-1.1-0.5c-0.4-0.1-0.9-0.2-1.4-0.4c-0.5-0.1-1-0.2-1.4-0.4
		s-0.8-0.4-1.1-0.7s-0.4-0.7-0.4-1.3c0-0.5,0.1-0.8,0.3-1.2c0.2-0.3,0.5-0.6,0.8-0.8c0.3-0.2,0.7-0.4,1.1-0.5
		c0.4-0.1,0.9-0.1,1.4-0.1c0.8,0,1.6,0.1,2.2,0.3s1.1,0.4,1.4,0.7l-0.6,1.1c-0.4-0.2-0.8-0.4-1.3-0.6c-0.5-0.2-1-0.3-1.7-0.3
		c-0.3,0-0.5,0-0.8,0.1s-0.5,0.1-0.7,0.2c-0.2,0.1-0.4,0.2-0.5,0.4s-0.2,0.4-0.2,0.6c0,0.3,0.1,0.5,0.4,0.7s0.7,0.3,1.1,0.4
		c0.4,0.1,0.9,0.2,1.4,0.3s1,0.2,1.4,0.4s0.8,0.5,1.1,0.8s0.4,0.8,0.4,1.3c0,0.8-0.3,1.5-1,2c-0.6,0.5-1.6,0.8-2.9,0.8
		c-0.4,0-0.8,0-1.2-0.1c-0.4-0.1-0.7-0.2-1.1-0.3c-0.3-0.1-0.6-0.2-0.9-0.4s-0.5-0.3-0.7-0.5l0.7-1.2c0.1,0.1,0.3,0.3,0.6,0.4
		s0.5,0.3,0.8,0.4c0.3,0.1,0.6,0.2,0.9,0.3s0.7,0.1,1,0.1c0.3,0,0.6,0,0.9-0.1s0.5-0.1,0.7-0.2s0.4-0.3,0.5-0.5
		C226.5,428,226.5,427.8,226.5,427.5z"/>
</g>
<g>
	<path d="M84.8,455.8h4.3v5.7c-0.4,0.4-0.9,0.6-1.6,0.8s-1.3,0.3-2,0.3c-0.8,0-1.6-0.1-2.2-0.4c-0.7-0.3-1.3-0.7-1.8-1.2
		s-0.9-1.2-1.2-2.1s-0.4-1.8-0.4-2.9c0-1.2,0.2-2.1,0.5-3s0.8-1.5,1.4-2s1.2-0.9,1.9-1.1s1.4-0.4,2.1-0.4c0.7,0,1.3,0.1,1.8,0.2
		c0.5,0.1,0.9,0.3,1.3,0.4v3.7h-2v-2c-0.1,0-0.2,0-0.3-0.1c-0.2,0-0.5-0.1-0.8-0.1c-0.5,0-0.9,0.1-1.4,0.2c-0.4,0.2-0.8,0.4-1.1,0.8
		s-0.5,0.8-0.7,1.4c-0.2,0.5-0.2,1.2-0.2,2c0,0.7,0.1,1.3,0.2,1.8c0.2,0.5,0.4,1,0.7,1.4c0.3,0.4,0.7,0.6,1.1,0.8s0.9,0.3,1.3,0.3
		c0.3,0,0.6,0,0.8-0.1c0.3-0.1,0.4-0.1,0.5-0.2v-2.5h-2.3V455.8z"/>
	<path d="M90.9,449.9c0.3,0,0.6-0.1,0.9-0.1s0.6-0.1,0.9-0.1c0.3,0,0.6,0,0.9,0c0.3,0,0.6,0,0.8,0c0.6,0,1.2,0.1,1.7,0.2
		c0.6,0.1,1.1,0.3,1.5,0.6c0.4,0.3,0.8,0.6,1.1,1.1c0.3,0.5,0.4,1,0.4,1.7c0,0.5-0.1,1-0.2,1.3s-0.2,0.7-0.4,1s-0.4,0.5-0.7,0.8
		s-0.5,0.4-0.8,0.6l3,5.5h-2.8l-2.5-4.9h-1.5v4.9h-2.5V449.9z M94.7,451.8c-0.2,0-0.5,0-0.8,0s-0.4,0-0.6,0.1v3.6h1
		c0.7,0,1.2-0.2,1.7-0.5s0.7-0.8,0.7-1.5c0-0.5-0.2-1-0.5-1.3C95.8,451.9,95.3,451.8,94.7,451.8z"/>
	<path d="M101.2,456.1c0-1,0.1-1.9,0.3-2.8c0.2-0.8,0.5-1.5,0.9-2.1c0.4-0.6,0.9-1,1.5-1.3c0.6-0.3,1.3-0.5,2.1-0.5
		c0.9,0,1.6,0.2,2.2,0.5s1.1,0.8,1.5,1.4c0.4,0.6,0.7,1.3,0.8,2.1s0.3,1.7,0.3,2.6c0,2-0.4,3.6-1.2,4.8c-0.8,1.2-2,1.7-3.6,1.7
		c-0.9,0-1.6-0.2-2.2-0.5s-1.1-0.8-1.5-1.4c-0.4-0.6-0.7-1.3-0.8-2.1C101.3,457.9,101.2,457,101.2,456.1z M103.8,456.1
		c0,0.6,0,1.2,0.1,1.7s0.2,1,0.3,1.4s0.4,0.7,0.7,0.9c0.3,0.2,0.7,0.3,1.1,0.3c0.4,0,0.8-0.1,1-0.3c0.3-0.2,0.5-0.4,0.7-0.8
		c0.2-0.4,0.3-0.8,0.3-1.4c0.1-0.5,0.1-1.2,0.1-1.9c0-0.6,0-1.1-0.1-1.7s-0.1-1-0.3-1.4s-0.4-0.7-0.7-0.9s-0.7-0.4-1.2-0.4
		c-0.8,0-1.4,0.4-1.7,1.1C104,453.5,103.8,454.6,103.8,456.1z"/>
	<path d="M118.9,449.8h2.3v8c0,0.8-0.1,1.5-0.3,2.1s-0.5,1.1-0.9,1.5s-0.8,0.7-1.4,0.9s-1.1,0.3-1.8,0.3c-1.6,0-2.7-0.4-3.5-1.1
		s-1.1-1.9-1.1-3.3v-8.4h2.5v7.9c0,1,0.2,1.6,0.5,2.1s0.9,0.6,1.6,0.6c0.7,0,1.2-0.2,1.6-0.7c0.3-0.5,0.5-1.1,0.5-2L118.9,449.8
		L118.9,449.8z"/>
	<path d="M123.4,449.9c0.5-0.1,1.1-0.2,1.7-0.2s1.2-0.1,1.8-0.1c0.6,0,1.2,0,1.9,0.1s1.2,0.3,1.7,0.6c0.5,0.3,0.9,0.7,1.2,1.3
		s0.5,1.2,0.5,2.1c0,0.8-0.1,1.4-0.4,2c-0.3,0.5-0.6,1-1.1,1.4c-0.5,0.4-1,0.6-1.6,0.8s-1.2,0.2-1.8,0.2c-0.1,0-0.2,0-0.3,0
		s-0.3,0-0.4,0c-0.1,0-0.3,0-0.4,0c-0.1,0-0.2,0-0.3,0v4.3h-2.5L123.4,449.9L123.4,449.9z M127.1,451.7c-0.2,0-0.5,0-0.7,0
		s-0.4,0-0.5,0.1v4.1c0.1,0,0.1,0,0.2,0s0.2,0,0.3,0c0.1,0,0.2,0,0.3,0s0.2,0,0.2,0c0.3,0,0.6,0,1-0.1c0.3-0.1,0.6-0.2,0.9-0.3
		c0.2-0.2,0.4-0.4,0.6-0.7c0.1-0.3,0.2-0.7,0.2-1.1c0-0.4-0.1-0.7-0.2-1c-0.1-0.3-0.3-0.5-0.6-0.6c-0.2-0.2-0.5-0.3-0.8-0.3
		C127.7,451.8,127.4,451.7,127.1,451.7z"/>
	<path d="M153.2,452.7c0,0.3,0,0.6-0.1,0.9s-0.2,0.6-0.4,0.9s-0.4,0.5-0.7,0.7s-0.6,0.3-1,0.4v0.1c0.4,0.1,0.7,0.2,1,0.3
		s0.6,0.3,0.8,0.6c0.2,0.2,0.4,0.6,0.6,0.9c0.1,0.4,0.2,0.8,0.2,1.3c0,0.6-0.1,1.2-0.4,1.7c-0.3,0.5-0.6,0.9-1.1,1.2
		c-0.5,0.3-1,0.5-1.6,0.7c-0.6,0.1-1.2,0.2-1.8,0.2c-0.2,0-0.5,0-0.8,0s-0.7,0-1,0c-0.4,0-0.7,0-1.1-0.1c-0.4,0-0.7-0.1-1-0.2v-12.4
		c0.2,0,0.5-0.1,0.8-0.1s0.6-0.1,0.9-0.1s0.7,0,1,0c0.4,0,0.7,0,1.1,0c0.6,0,1.2,0,1.7,0.1c0.6,0.1,1.1,0.2,1.5,0.5s0.8,0.5,1.1,1
		C153.1,451.6,153.2,452.1,153.2,452.7z M147.9,455.1c0.2,0,0.4,0,0.6,0c0.2,0,0.4,0,0.6,0c0.5-0.1,0.9-0.4,1.2-0.6
		c0.3-0.3,0.5-0.7,0.5-1.1c0-0.3-0.1-0.6-0.2-0.8s-0.3-0.4-0.5-0.5s-0.4-0.2-0.7-0.2c-0.3,0-0.5-0.1-0.8-0.1c-0.3,0-0.6,0-0.9,0
		s-0.5,0-0.6,0v3.3L147.9,455.1L147.9,455.1z M148.7,460.5c0.3,0,0.6,0,0.9-0.1s0.5-0.2,0.8-0.3c0.2-0.1,0.4-0.3,0.5-0.6
		s0.2-0.5,0.2-0.8c0-0.4-0.1-0.7-0.2-0.9c-0.2-0.2-0.4-0.4-0.6-0.5s-0.5-0.2-0.8-0.2c-0.3,0-0.6,0-0.9,0h-1.3v3.4c0.1,0,0.2,0,0.3,0
		c0.1,0,0.3,0,0.4,0s0.3,0,0.5,0C148.5,460.5,148.6,460.5,148.7,460.5z"/>
	<path d="M158.6,457.7l-4.1-7.9h2.9l2.4,5.2h0.1l2.5-5.2h2.6l-4,7.9v4.6h-2.5L158.6,457.7L158.6,457.7z"/>
	<path d="M177.2,462.3v-1.2h2.4v-6.6h-2.4v-1.2h3.4l0.3,1.2h0.1c0.4-0.4,0.9-0.7,1.4-1s1.1-0.4,1.8-0.4c0.4,0,0.7,0.1,1,0.2
		s0.4,0.4,0.6,0.7c0.1,0.3,0.2,0.7,0.3,1.1s0.1,0.9,0.1,1.4l-1.3,0c0-0.8-0.1-1.3-0.2-1.7s-0.4-0.5-0.8-0.5c-0.4,0-0.7,0-1,0.2
		s-0.6,0.2-0.8,0.4c-0.2,0.2-0.4,0.3-0.6,0.5s-0.3,0.3-0.3,0.4v5.3h3.4v1.2L177.2,462.3L177.2,462.3z"/>
	<path d="M188.6,462.3v-1.2h3.1v-6.6h-3.1v-1.2h4.5v7.8h3.1v1.2L188.6,462.3L188.6,462.3z M191.3,450.8c0-0.3,0.1-0.6,0.3-0.8
		c0.2-0.2,0.5-0.4,0.8-0.4c0.4,0,0.6,0.1,0.9,0.4s0.4,0.5,0.4,0.8c0,0.3-0.1,0.6-0.4,0.8c-0.2,0.2-0.5,0.3-0.9,0.3
		c-0.3,0-0.6-0.1-0.8-0.3C191.4,451.4,191.3,451.1,191.3,450.8z"/>
	<path d="M203.8,449.8h2.9v9.5c0,0.1,0,0.2,0,0.4c0,0.2,0,0.3,0,0.5c0,0.2,0,0.4,0.1,0.5s0.1,0.3,0.1,0.5h1.2v1.2h-2.4l-0.2-1.4
		h-0.1c-0.3,0.5-0.6,0.8-1.2,1.1c-0.5,0.3-1.1,0.5-1.8,0.5c-1.4,0-2.3-0.4-3-1.1s-1-1.9-1-3.5c0-0.8,0.1-1.4,0.3-2s0.5-1.1,0.9-1.5
		s0.9-0.7,1.4-0.9c0.6-0.2,1.2-0.3,1.9-0.3c0.2,0,0.5,0,0.7,0c0.2,0,0.4,0,0.6,0s0.3,0.1,0.5,0.1c0.1,0,0.3,0.1,0.5,0.1V451h-1.5
		L203.8,449.8L203.8,449.8z M202.7,461.4c0.7,0,1.3-0.2,1.7-0.6s0.7-0.9,0.9-1.7v-4.2c-0.3-0.2-0.6-0.3-0.9-0.4s-0.8-0.1-1.3-0.1
		c-0.9,0-1.7,0.3-2.2,0.8s-0.8,1.4-0.8,2.6c0,0.5,0,1,0.1,1.4c0.1,0.4,0.2,0.8,0.4,1.1c0.2,0.3,0.5,0.6,0.8,0.7
		S202.2,461.4,202.7,461.4z"/>
	<path d="M217.8,461.2c-0.2,0.2-0.5,0.4-0.8,0.5s-0.6,0.3-1,0.4s-0.7,0.2-1.1,0.3c-0.4,0.1-0.8,0.1-1.1,0.1c-0.7,0-1.4-0.1-1.9-0.3
		c-0.6-0.2-1-0.5-1.4-1s-0.6-0.9-0.8-1.5c-0.2-0.6-0.3-1.2-0.3-1.9c0-0.8,0.1-1.4,0.3-2c0.2-0.6,0.5-1.1,0.9-1.5
		c0.4-0.4,0.9-0.7,1.4-0.9c0.6-0.2,1.2-0.3,1.9-0.3c0.5,0,1,0.1,1.5,0.2s0.9,0.4,1.3,0.8s0.7,0.9,0.9,1.5s0.3,1.5,0.2,2.5h-6.9
		c0,1.1,0.3,1.9,0.9,2.4s1.4,0.8,2.3,0.8c0.3,0,0.6,0,1-0.1s0.6-0.2,0.9-0.3c0.3-0.1,0.5-0.2,0.8-0.4s0.4-0.2,0.5-0.4L217.8,461.2z
		 M214,454.3c-0.4,0-0.8,0-1.1,0.1c-0.4,0.1-0.7,0.2-0.9,0.4s-0.5,0.5-0.7,0.8c-0.2,0.3-0.3,0.7-0.3,1.2h5.6
		c-0.1-0.8-0.3-1.4-0.8-1.8C215.3,454.6,214.7,454.3,214,454.3z"/>
	<path d="M220.1,449.8h8.6v1.3h-3.6v9.9h3.6v1.3h-8.6V461h3.6v-9.9h-3.6V449.8z"/>
	<path d="M236.1,449.8h2.9v9.5c0,0.1,0,0.2,0,0.4c0,0.2,0,0.3,0,0.5c0,0.2,0,0.4,0.1,0.5s0.1,0.3,0.1,0.5h1.2v1.2H238l-0.2-1.4h-0.1
		c-0.3,0.5-0.6,0.8-1.2,1.1c-0.5,0.3-1.1,0.5-1.8,0.5c-1.4,0-2.3-0.4-3-1.1s-1-1.9-1-3.5c0-0.8,0.1-1.4,0.3-2s0.5-1.1,0.9-1.5
		s0.9-0.7,1.4-0.9c0.6-0.2,1.2-0.3,1.9-0.3c0.2,0,0.5,0,0.7,0c0.2,0,0.4,0,0.6,0s0.3,0.1,0.5,0.1c0.1,0,0.3,0.1,0.5,0.1V451h-1.5
		L236.1,449.8L236.1,449.8z M235,461.4c0.7,0,1.3-0.2,1.7-0.6s0.7-0.9,0.9-1.7v-4.2c-0.3-0.2-0.6-0.3-0.9-0.4s-0.8-0.1-1.3-0.1
		c-0.9,0-1.7,0.3-2.2,0.8s-0.8,1.4-0.8,2.6c0,0.5,0,1,0.1,1.4c0.1,0.4,0.2,0.8,0.4,1.1c0.2,0.3,0.5,0.6,0.8,0.7
		S234.5,461.4,235,461.4z"/>
</g>
<g>
	<path d="M79.6,482.1h8.2v2.2H82v2.9h5.3v2.2H82v3.1h5.9v2.2h-8.3V482.1z"/>
	<path d="M96.7,488l0.1-2h-0.1l-2,3.3h-0.4l-2.1-3.3H92l0.1,1.8v6.9h-2.3v-12.6h2.5l2.2,3.5h0.1l2.1-3.5h2.5v12.6h-2.5L96.7,488
		L96.7,488z"/>
	<path d="M100.8,492.5h3.2v-8.2h-3.2v-2.2h8.8v2.2h-3.2v8.2h3.2v2.2h-8.8V492.5z"/>
	<path d="M112.7,492.7h2.1v-8.6h-1.7v2.2h-2v-4.1h9.8v4.1h-2v-2.2h-1.7v8.6h2v2h-6.5L112.7,492.7L112.7,492.7z"/>
	<path d="M140.1,490.5h2v3.6c-0.4,0.3-0.9,0.5-1.5,0.6c-0.6,0.2-1.2,0.2-1.8,0.2c-0.8,0-1.5-0.1-2.2-0.4s-1.3-0.6-1.9-1.1
		c-0.5-0.5-1-1.2-1.3-2s-0.5-1.8-0.5-3c0-1.2,0.2-2.3,0.6-3.1c0.4-0.8,0.8-1.5,1.4-2c0.6-0.5,1.2-0.9,1.9-1.1
		c0.7-0.2,1.4-0.3,2.1-0.3c0.7,0,1.3,0.1,1.8,0.2c0.5,0.1,0.9,0.3,1.2,0.4v3.7h-2v-2c-0.4-0.1-0.8-0.1-1.1-0.1
		c-0.5,0-0.9,0.1-1.3,0.3c-0.4,0.2-0.8,0.4-1.1,0.8s-0.5,0.8-0.7,1.4c-0.2,0.5-0.2,1.2-0.2,1.9c0,0.6,0.1,1.2,0.2,1.8s0.4,1,0.7,1.4
		c0.3,0.4,0.7,0.7,1.1,0.9c0.4,0.2,0.9,0.3,1.5,0.3c0.4,0,0.8,0,1.1-0.1L140.1,490.5L140.1,490.5z"/>
	<path d="M150.3,489.5h-4.1v5.3h-2.5v-12.6h2.5v5.1h4.1v-5.1h2.5v12.6h-2.5V489.5z"/>
	<path d="M160.9,491.9h-3.8l-0.9,2.8h-2.5l4.1-12.6h2.5l4,12.6h-2.6L160.9,491.9z M157.7,490h2.7l-1.3-4.2h-0.2L157.7,490z"/>
	<path d="M167.8,487.3L167.8,487.3l0,1.5v5.9h-2.3v-12.6h2.1l4.3,7.7h0.1l-0.2-1.5v-6.2h2.3v12.6h-2.1L167.8,487.3z"/>
	<path d="M181,488.2h4.3v5.7c-0.4,0.4-0.9,0.6-1.6,0.8s-1.3,0.3-2,0.3c-0.8,0-1.6-0.1-2.2-0.4c-0.7-0.3-1.3-0.7-1.8-1.2
		c-0.5-0.6-0.9-1.2-1.2-2.1s-0.4-1.8-0.4-2.9c0-1.2,0.2-2.1,0.5-3s0.8-1.5,1.4-2s1.2-0.9,1.9-1.1s1.4-0.4,2.1-0.4
		c0.7,0,1.3,0.1,1.8,0.2c0.5,0.1,0.9,0.3,1.3,0.4v3.7h-2v-2c-0.1,0-0.2,0-0.3-0.1c-0.2,0-0.5-0.1-0.8-0.1c-0.5,0-0.9,0.1-1.4,0.2
		c-0.4,0.2-0.8,0.4-1.1,0.8s-0.5,0.8-0.7,1.4c-0.2,0.5-0.2,1.2-0.2,2c0,0.7,0.1,1.3,0.2,1.8c0.2,0.5,0.4,1,0.7,1.4s0.7,0.6,1.1,0.8
		s0.9,0.3,1.3,0.3c0.3,0,0.6,0,0.9-0.1c0.3-0.1,0.4-0.1,0.5-0.2V490H181V488.2z"/>
	<path d="M187.3,482.1h8.2v2.2h-5.8v2.9h5.3v2.2h-5.3v3.1h5.9v2.2h-8.3V482.1z"/>
	<path d="M197.9,490.6h2v1.8c0,0,0.1,0,0.1,0c0.3,0.1,0.6,0.2,0.9,0.3s0.7,0.1,1.1,0.1c0.7,0,1.2-0.1,1.6-0.4s0.6-0.6,0.6-1.1
		c0-0.4-0.1-0.7-0.5-1c-0.3-0.2-0.7-0.5-1.1-0.7c-0.4-0.2-0.9-0.4-1.5-0.6s-1-0.4-1.5-0.7c-0.4-0.3-0.8-0.7-1.1-1.1s-0.5-1-0.5-1.7
		c0-0.5,0.1-1,0.3-1.5c0.2-0.5,0.5-0.8,0.9-1.2s0.8-0.6,1.4-0.8s1.1-0.3,1.8-0.3c0.7,0,1.4,0.1,2.1,0.2c0.7,0.1,1.3,0.3,1.7,0.5v3.6
		h-2v-2c0,0-0.1,0-0.1,0c-0.3-0.1-0.6-0.1-0.9-0.2c-0.3,0-0.6-0.1-0.9-0.1c-0.6,0-1,0.1-1.4,0.3c-0.3,0.2-0.5,0.5-0.5,0.9
		c0,0.4,0.1,0.7,0.5,1c0.3,0.2,0.7,0.5,1.1,0.7c0.4,0.2,0.9,0.4,1.5,0.6c0.5,0.2,1,0.5,1.5,0.8c0.4,0.3,0.8,0.7,1.1,1.1
		s0.5,1,0.5,1.7c0,0.6-0.1,1.2-0.4,1.7c-0.2,0.5-0.6,0.9-1,1.2s-0.9,0.6-1.5,0.7c-0.6,0.2-1.2,0.2-1.9,0.2c-0.5,0-0.9,0-1.3-0.1
		c-0.4-0.1-0.8-0.2-1.1-0.3s-0.6-0.2-0.9-0.3s-0.5-0.2-0.6-0.3L197.9,490.6L197.9,490.6z"/>
</g>
<g>
	<path d="M176.4,401.2H175v-4.6h-0.1c-0.3,0.4-0.6,0.7-1.1,0.9s-1,0.3-1.7,0.3c-1.4,0-2.4-0.4-3-1.1s-1-1.9-1-3.5
		c0-1.5,0.4-2.7,1.2-3.5s2-1.2,3.6-1.2c0.7,0,1.4,0.1,2,0.2s1.1,0.2,1.4,0.4L176.4,401.2L176.4,401.2z M172.4,396.6
		c1.4,0,2.3-0.8,2.6-2.2V390c-0.3-0.1-0.6-0.2-0.9-0.3c-0.4,0-0.8-0.1-1.2-0.1c-0.9,0-1.7,0.3-2.2,0.8c-0.6,0.5-0.8,1.4-0.8,2.6
		c0,0.5,0,1,0.1,1.4c0.1,0.4,0.2,0.8,0.5,1.1s0.5,0.5,0.8,0.7C171.5,396.5,171.9,396.6,172.4,396.6z"/>
	<path d="M184.4,388.6h2.6v6.1c0,0.6,0,1.1,0.1,1.7h1.2v1.2h-2.4l-0.1-1.5h-0.1c-0.3,0.5-0.7,0.9-1.2,1.3c-0.5,0.3-1.1,0.5-1.9,0.5
		c-0.6,0-1-0.1-1.4-0.2s-0.7-0.3-1-0.7c-0.2-0.3-0.4-0.7-0.6-1.2s-0.2-1.2-0.2-2v-4h-1.2v-1.2h2.6v4.9c0,0.5,0,0.9,0.1,1.3
		s0.1,0.7,0.3,1c0.1,0.3,0.3,0.5,0.6,0.6c0.2,0.1,0.6,0.2,1,0.2c0.6,0,1.2-0.2,1.6-0.6s0.8-0.9,1-1.5v-4.6h-1.1L184.4,388.6
		L184.4,388.6z"/>
	<path d="M190.6,389.3c0.5-0.3,1.1-0.5,1.7-0.6c0.6-0.1,1.3-0.2,1.9-0.2c0.6,0,1.1,0.1,1.5,0.3s0.7,0.4,0.9,0.8
		c0.2,0.3,0.4,0.6,0.4,1s0.1,0.8,0.1,1.2c0,0.5,0,0.9,0,1.5c0,0.5,0,1-0.1,1.5c0,0.6,0,1.2,0.1,1.7h1.2v1.2h-2.4l-0.2-1.4h-0.1
		c-0.1,0.1-0.2,0.2-0.3,0.4c-0.1,0.2-0.3,0.3-0.6,0.5c-0.2,0.2-0.5,0.3-0.9,0.4c-0.3,0.1-0.7,0.2-1.2,0.2c-0.9,0-1.6-0.2-2.1-0.7
		c-0.5-0.5-0.8-1.1-0.8-1.9c0-0.6,0.1-1.1,0.4-1.5c0.3-0.4,0.7-0.7,1.2-0.9c0.5-0.2,1.1-0.3,1.8-0.4c0.7,0,1.5,0,2.4,0.1
		c0.1-0.5,0.1-1,0-1.4s-0.1-0.7-0.3-0.9c-0.1-0.2-0.4-0.4-0.6-0.5s-0.6-0.1-1-0.1c-0.5,0-1.1,0.1-1.6,0.2c-0.5,0.1-0.9,0.3-1.3,0.5
		L190.6,389.3z M193.3,396.5c0.3,0,0.6,0,0.9-0.2c0.3-0.1,0.5-0.2,0.8-0.4c0.2-0.2,0.4-0.4,0.5-0.5s0.2-0.4,0.3-0.6v-1.3
		c-0.6-0.1-1.2-0.2-1.7-0.2c-0.5,0-1,0.1-1.4,0.2c-0.4,0.1-0.7,0.3-0.9,0.5c-0.2,0.2-0.3,0.5-0.3,0.9c0,0.4,0.1,0.7,0.4,1
		C192.2,396.4,192.7,396.5,193.3,396.5z"/>
	<path d="M201.6,385h3v9.5c0,0.7,0.1,1.2,0.4,1.5c0.2,0.3,0.6,0.5,1.1,0.5c0.3,0,0.7-0.1,1-0.2s0.6-0.3,1-0.6l0.6,1
		c-0.2,0.2-0.4,0.3-0.6,0.5c-0.2,0.1-0.5,0.2-0.7,0.3s-0.5,0.2-0.7,0.2s-0.5,0.1-0.7,0.1c-0.4,0-0.8-0.1-1.2-0.2
		c-0.4-0.1-0.6-0.3-0.9-0.5s-0.4-0.6-0.5-1c-0.1-0.4-0.2-0.9-0.2-1.5v-8.4h-1.6L201.6,385L201.6,385z"/>
	<path d="M212.1,397.6v-1.2h3.1v-6.6h-3.1v-1.2h4.5v7.8h3.1v1.2L212.1,397.6L212.1,397.6z M214.8,386.1c0-0.3,0.1-0.6,0.3-0.8
		c0.2-0.2,0.5-0.4,0.8-0.4c0.4,0,0.6,0.1,0.9,0.4s0.4,0.5,0.4,0.8c0,0.3-0.1,0.6-0.4,0.8c-0.2,0.2-0.5,0.3-0.9,0.3
		c-0.3,0-0.6-0.1-0.8-0.3C214.9,386.6,214.8,386.4,214.8,386.1z"/>
	<path d="M222.6,397.6v-1.2h2.1v-6.6h-2.1v-1.2h2.1v-0.5c0-1.1,0.3-1.9,0.9-2.4c0.6-0.5,1.4-0.8,2.5-0.8c0.4,0,0.8,0,1.1,0.1
		c0.3,0,0.6,0.1,1,0.3l-0.3,1.2c-0.3-0.1-0.6-0.2-0.9-0.3s-0.6-0.1-0.8-0.1c-0.8,0-1.3,0.2-1.6,0.6c-0.3,0.4-0.4,1-0.4,1.9h3.7v1.2
		h-3.7v6.6h3.7v1.2L222.6,397.6L222.6,397.6z"/>
	<path d="M237.4,396.2h0.7l2.2-7.6h1.4l-2.5,8.1c-0.1,0.4-0.3,0.9-0.4,1.4s-0.3,1-0.6,1.5s-0.6,0.9-1,1.2s-1,0.5-1.7,0.5
		c-0.2,0-0.3,0-0.5,0c-0.2,0-0.3-0.1-0.5-0.1c-0.2,0-0.3-0.1-0.5-0.2c-0.1-0.1-0.2-0.1-0.3-0.2l0.5-1.3c0.1,0.1,0.2,0.1,0.3,0.2
		c0.1,0.1,0.3,0.1,0.4,0.1c0.1,0,0.3,0.1,0.4,0.1s0.3,0,0.4,0c0.9,0,1.5-0.8,1.8-2.3h-1.2l-3.8-9h1.6L237.4,396.2z"/>
	<path d="M244.4,385.1c0.5-0.1,0.9-0.2,1.5-0.2c0.5,0,1.1,0,1.6,0c0.6,0,1.1,0,1.7,0.2c0.6,0.1,1.1,0.3,1.6,0.6s0.9,0.7,1.1,1.2
		c0.3,0.5,0.4,1.1,0.4,1.9c0,0.8-0.1,1.4-0.4,1.9c-0.3,0.5-0.6,1-1.1,1.3s-1,0.6-1.6,0.7c-0.6,0.1-1.2,0.2-1.8,0.2
		c-0.1,0-0.2,0-0.3,0s-0.3,0-0.4,0s-0.3,0-0.4,0s-0.2,0-0.3,0v4.8h-1.5L244.4,385.1L244.4,385.1z M247.4,386.2c-0.3,0-0.6,0-0.9,0
		c-0.3,0-0.5,0-0.7,0.1v5.2c0.1,0,0.2,0,0.3,0s0.3,0,0.4,0c0.1,0,0.3,0,0.4,0c0.1,0,0.2,0,0.3,0c0.4,0,0.8,0,1.2-0.1
		c0.4-0.1,0.8-0.2,1.1-0.4c0.3-0.2,0.6-0.5,0.8-0.9c0.2-0.4,0.3-0.8,0.3-1.4c0-0.5-0.1-0.9-0.3-1.2c-0.2-0.3-0.4-0.6-0.7-0.8
		c-0.3-0.2-0.6-0.3-1-0.4C248.2,386.2,247.8,386.2,247.4,386.2z"/>
	<path d="M254.5,397.6v-1.2h2.4v-6.6h-2.4v-1.2h3.4l0.3,1.2h0.1c0.4-0.4,0.9-0.7,1.4-1s1.1-0.4,1.8-0.4c0.4,0,0.7,0.1,1,0.2
		s0.4,0.4,0.6,0.7c0.1,0.3,0.2,0.7,0.3,1.1s0.1,0.9,0.1,1.4l-1.3,0c0-0.8-0.1-1.3-0.2-1.7s-0.4-0.5-0.8-0.5c-0.4,0-0.7,0-1,0.2
		s-0.6,0.2-0.8,0.4c-0.2,0.2-0.4,0.3-0.6,0.5s-0.3,0.3-0.3,0.4v5.3h3.5v1.2L254.5,397.6L254.5,397.6z"/>
	<path d="M265.1,393.1c0-1.5,0.4-2.6,1.1-3.4s1.8-1.3,3.2-1.3c0.8,0,1.4,0.1,2,0.4s1,0.6,1.4,1s0.6,0.9,0.8,1.5s0.3,1.2,0.3,1.9
		c0,0.7-0.1,1.4-0.3,2s-0.5,1.1-0.8,1.5s-0.8,0.7-1.4,0.9s-1.2,0.3-1.9,0.3c-0.7,0-1.4-0.1-1.9-0.4s-1-0.6-1.4-1s-0.6-0.9-0.8-1.5
		C265.2,394.4,265.1,393.8,265.1,393.1z M266.6,393.1c0,0.4,0,0.8,0.1,1.3s0.3,0.8,0.5,1.1c0.2,0.3,0.5,0.6,0.9,0.8
		c0.4,0.2,0.8,0.3,1.3,0.3c1,0,1.7-0.3,2.2-0.9c0.5-0.6,0.7-1.5,0.7-2.6c0-0.4,0-0.9-0.1-1.3c-0.1-0.4-0.3-0.8-0.5-1.1
		s-0.5-0.6-0.9-0.8c-0.4-0.2-0.8-0.3-1.3-0.3c-1,0-1.7,0.3-2.1,0.9C266.9,391.1,266.6,392,266.6,393.1z"/>
	<path d="M279.6,397.6v-6c0-0.2,0-0.5,0-0.7c0-0.2-0.1-0.4-0.1-0.6s-0.2-0.3-0.3-0.4c-0.1-0.1-0.3-0.2-0.5-0.2c-0.4,0-0.8,0.2-1,0.5
		s-0.5,0.8-0.6,1.3v6.2h-1.4v-9h0.9l0.3,1.1h0.1c0.1-0.2,0.2-0.4,0.4-0.5c0.1-0.2,0.2-0.3,0.4-0.4c0.1-0.1,0.3-0.2,0.5-0.3
		s0.5-0.1,0.8-0.1c0.2,0,0.4,0,0.6,0.1s0.4,0.1,0.5,0.2s0.3,0.3,0.4,0.5c0.1,0.2,0.2,0.4,0.2,0.7c0.3-0.5,0.6-0.8,0.9-1.1
		c0.3-0.3,0.8-0.4,1.4-0.4c0.4,0,0.7,0.1,1,0.2s0.4,0.3,0.6,0.6c0.1,0.2,0.2,0.5,0.3,0.9s0.1,0.7,0.1,1.1v6.4h-1.4v-6.1
		c0-0.2,0-0.5,0-0.7c0-0.2-0.1-0.4-0.1-0.6c-0.1-0.2-0.2-0.3-0.3-0.4c-0.1-0.1-0.3-0.1-0.5-0.1c-0.4,0-0.8,0.2-1.1,0.5
		s-0.5,0.8-0.6,1.4v6L279.6,397.6L279.6,397.6z"/>
	<path d="M286.7,393.1c0-1.5,0.4-2.6,1.1-3.4s1.8-1.3,3.2-1.3c0.8,0,1.4,0.1,2,0.4s1,0.6,1.4,1s0.6,0.9,0.8,1.5s0.3,1.2,0.3,1.9
		c0,0.7-0.1,1.4-0.3,2s-0.5,1.1-0.8,1.5s-0.8,0.7-1.4,0.9s-1.2,0.3-1.9,0.3c-0.7,0-1.4-0.1-1.9-0.4s-1-0.6-1.4-1s-0.6-0.9-0.8-1.5
		C286.8,394.4,286.7,393.8,286.7,393.1z M288.2,393.1c0,0.4,0,0.8,0.1,1.3s0.3,0.8,0.5,1.1c0.2,0.3,0.5,0.6,0.9,0.8
		c0.4,0.2,0.8,0.3,1.3,0.3c1,0,1.7-0.3,2.2-0.9c0.5-0.6,0.7-1.5,0.7-2.6c0-0.4,0-0.9-0.1-1.3c-0.1-0.4-0.3-0.8-0.5-1.1
		s-0.5-0.6-0.9-0.8c-0.4-0.2-0.8-0.3-1.3-0.3c-1,0-1.7,0.3-2.1,0.9C288.4,391.1,288.2,392,288.2,393.1z"/>
	<path d="M297,388.6h2.1v-1.8l1.4-0.4v2.2h4.8v1.2h-4.8v4.2c0,0.9,0.2,1.5,0.6,1.9s1,0.6,1.8,0.6c0.5,0,1-0.1,1.4-0.3
		c0.4-0.2,0.8-0.4,1.1-0.7l0.5,1.1c-0.4,0.3-0.9,0.6-1.5,0.8c-0.6,0.2-1.2,0.3-1.8,0.3c-0.5,0-0.9-0.1-1.4-0.2
		c-0.4-0.1-0.8-0.4-1.1-0.6s-0.6-0.7-0.8-1.1c-0.2-0.5-0.3-1-0.3-1.6v-4.5H297L297,388.6L297,388.6z"/>
	<path d="M309.1,397.6v-1.2h3.1v-6.6h-3.1v-1.2h4.5v7.8h3v1.2L309.1,397.6L309.1,397.6z M311.7,386.1c0-0.3,0.1-0.6,0.3-0.8
		c0.2-0.2,0.5-0.4,0.8-0.4c0.4,0,0.6,0.1,0.9,0.4s0.4,0.5,0.4,0.8c0,0.3-0.1,0.6-0.4,0.8s-0.5,0.3-0.9,0.3c-0.3,0-0.6-0.1-0.8-0.3
		C311.8,386.6,311.7,386.4,311.7,386.1z"/>
	<path d="M319,393.1c0-1.5,0.4-2.6,1.1-3.4s1.8-1.3,3.2-1.3c0.8,0,1.4,0.1,2,0.4s1,0.6,1.4,1s0.6,0.9,0.8,1.5s0.3,1.2,0.3,1.9
		c0,0.7-0.1,1.4-0.3,2s-0.5,1.1-0.8,1.5s-0.8,0.7-1.4,0.9s-1.2,0.3-1.9,0.3c-0.7,0-1.4-0.1-1.9-0.4s-1-0.6-1.4-1s-0.6-0.9-0.8-1.5
		C319.1,394.4,319,393.8,319,393.1z M320.5,393.1c0,0.4,0,0.8,0.1,1.3s0.3,0.8,0.5,1.1c0.2,0.3,0.5,0.6,0.9,0.8
		c0.4,0.2,0.8,0.3,1.3,0.3c1,0,1.7-0.3,2.2-0.9c0.5-0.6,0.7-1.5,0.7-2.6c0-0.4,0-0.9-0.1-1.3c-0.1-0.4-0.3-0.8-0.5-1.1
		s-0.5-0.6-0.9-0.8c-0.4-0.2-0.8-0.3-1.3-0.3c-1,0-1.7,0.3-2.1,0.9C320.7,391.1,320.5,392,320.5,393.1z"/>
	<path d="M330.4,391.8c0-0.1,0-0.2,0-0.4s0-0.4,0-0.5c0-0.2,0-0.4,0-0.5c0-0.2,0-0.3-0.1-0.5h-1.2v-1.2h2.4l0.2,1.5h0.1
		c0.1-0.2,0.3-0.4,0.5-0.6s0.4-0.4,0.7-0.5s0.6-0.3,0.9-0.4s0.7-0.1,1-0.1c0.5,0,1,0.1,1.5,0.2c0.4,0.1,0.8,0.3,1.1,0.6
		c0.3,0.3,0.5,0.7,0.6,1.2s0.2,1.2,0.2,2v5.1h-1.4v-4.9c0-1-0.2-1.7-0.5-2.2s-0.9-0.8-1.8-0.8c-0.3,0-0.6,0.1-0.9,0.2
		s-0.6,0.3-0.8,0.5s-0.5,0.4-0.6,0.7s-0.3,0.5-0.4,0.9v5.6h-1.4L330.4,391.8L330.4,391.8z"/>
	<path d="M347.3,401.4c-0.8-0.2-1.5-0.5-2.2-0.9s-1.3-0.9-1.8-1.6s-0.9-1.4-1.2-2.4s-0.5-2-0.5-3.3c0-1.3,0.2-2.4,0.5-3.3
		s0.7-1.8,1.3-2.4c0.5-0.7,1.1-1.2,1.8-1.6c0.7-0.4,1.4-0.7,2.2-0.9l0.5,1.1c-0.7,0.2-1.4,0.5-2,0.8c-0.6,0.3-1.1,0.8-1.5,1.3
		c-0.4,0.5-0.8,1.2-1,2c-0.2,0.8-0.4,1.8-0.4,2.9c0,1.2,0.1,2.1,0.4,3s0.6,1.5,1.1,2c0.5,0.5,1,1,1.5,1.3c0.6,0.3,1.1,0.5,1.7,0.6
		L347.3,401.4z"/>
	<path d="M356.5,385h2.9v9.5c0,0.1,0,0.2,0,0.4c0,0.2,0,0.3,0,0.5c0,0.2,0,0.4,0.1,0.5s0,0.3,0.1,0.5h1.2v1.2h-2.4l-0.2-1.4h-0.1
		c-0.3,0.5-0.6,0.8-1.2,1.1c-0.5,0.3-1.1,0.5-1.8,0.5c-1.4,0-2.3-0.4-3-1.1s-1-1.9-1-3.5c0-0.8,0.1-1.4,0.3-2
		c0.2-0.6,0.5-1.1,0.9-1.5c0.4-0.4,0.9-0.7,1.4-0.9c0.6-0.2,1.2-0.3,1.9-0.3c0.2,0,0.5,0,0.7,0c0.2,0,0.4,0,0.5,0
		c0.2,0,0.3,0.1,0.5,0.1c0.1,0,0.3,0.1,0.5,0.1v-2.5h-1.5L356.5,385L356.5,385z M355.5,396.6c0.7,0,1.3-0.2,1.7-0.6s0.7-0.9,0.9-1.7
		v-4.2c-0.3-0.2-0.6-0.3-0.9-0.4s-0.8-0.1-1.3-0.1c-1,0-1.7,0.3-2.2,0.8s-0.8,1.4-0.8,2.6c0,0.5,0,1,0.1,1.4
		c0.1,0.4,0.2,0.8,0.5,1.1c0.2,0.3,0.5,0.6,0.8,0.7S355,396.6,355.5,396.6z"/>
	<path d="M362.9,397.6v-1.2h3.1v-6.6h-3.1v-1.2h4.5v7.8h3v1.2L362.9,397.6L362.9,397.6z M365.5,386.1c0-0.3,0.1-0.6,0.3-0.8
		c0.2-0.2,0.5-0.4,0.8-0.4c0.4,0,0.6,0.1,0.9,0.4s0.4,0.5,0.4,0.8c0,0.3-0.1,0.6-0.4,0.8s-0.5,0.3-0.9,0.3c-0.3,0-0.6-0.1-0.8-0.3
		C365.7,386.6,365.5,386.4,365.5,386.1z"/>
	<path d="M379.7,395.2c0-0.4-0.1-0.7-0.5-0.9c-0.3-0.2-0.7-0.4-1.1-0.5c-0.4-0.1-0.9-0.2-1.4-0.4c-0.5-0.1-1-0.2-1.4-0.4
		s-0.8-0.4-1.1-0.7s-0.5-0.7-0.5-1.3c0-0.5,0.1-0.8,0.3-1.2c0.2-0.3,0.5-0.6,0.8-0.8s0.7-0.4,1.1-0.5c0.4-0.1,0.9-0.1,1.4-0.1
		c0.8,0,1.6,0.1,2.2,0.3s1.1,0.4,1.5,0.7l-0.6,1.1c-0.4-0.2-0.8-0.4-1.3-0.6c-0.5-0.2-1-0.3-1.7-0.3c-0.3,0-0.5,0-0.8,0.1
		s-0.5,0.1-0.7,0.2c-0.2,0.1-0.4,0.2-0.5,0.4s-0.2,0.4-0.2,0.6c0,0.3,0.1,0.5,0.5,0.7c0.3,0.2,0.7,0.3,1.1,0.4
		c0.4,0.1,0.9,0.2,1.4,0.3s1,0.2,1.4,0.4s0.8,0.5,1.1,0.8s0.5,0.8,0.5,1.3c0,0.8-0.3,1.5-1,2c-0.6,0.5-1.6,0.8-2.9,0.8
		c-0.4,0-0.8,0-1.2-0.1c-0.4-0.1-0.7-0.2-1.1-0.3c-0.3-0.1-0.6-0.2-0.9-0.4s-0.5-0.3-0.7-0.5l0.7-1.2c0.1,0.1,0.3,0.3,0.6,0.4
		c0.2,0.1,0.5,0.3,0.8,0.4c0.3,0.1,0.6,0.2,0.9,0.3c0.3,0.1,0.7,0.1,1,0.1c0.3,0,0.6,0,0.9-0.1s0.5-0.1,0.7-0.2s0.4-0.3,0.5-0.5
		C379.6,395.7,379.7,395.4,379.7,395.2z"/>
	<path d="M383.1,388.6h2.1v-1.8l1.4-0.4v2.2h4.8v1.2h-4.8v4.2c0,0.9,0.2,1.5,0.6,1.9s1,0.6,1.8,0.6c0.5,0,1-0.1,1.4-0.3
		c0.4-0.2,0.8-0.4,1.1-0.7l0.5,1.1c-0.4,0.3-0.9,0.6-1.5,0.8c-0.6,0.2-1.2,0.3-1.8,0.3c-0.5,0-0.9-0.1-1.4-0.2
		c-0.4-0.1-0.8-0.4-1.1-0.6s-0.6-0.7-0.8-1.1c-0.2-0.5-0.3-1-0.3-1.6v-4.5h-2.1L383.1,388.6L383.1,388.6z"/>
	<path d="M395.3,389.3c0.5-0.3,1.1-0.5,1.7-0.6c0.6-0.1,1.3-0.2,1.9-0.2c0.6,0,1.1,0.1,1.5,0.3s0.7,0.4,0.9,0.8
		c0.2,0.3,0.4,0.6,0.5,1c0.1,0.4,0.1,0.8,0.1,1.2c0,0.5,0,0.9,0,1.5c0,0.5,0,1,0,1.5c0,0.6,0,1.2,0.1,1.7h1.2v1.2h-2.4l-0.2-1.4
		h-0.1c-0.1,0.1-0.2,0.2-0.3,0.4c-0.1,0.2-0.3,0.3-0.6,0.5c-0.2,0.2-0.5,0.3-0.9,0.4c-0.3,0.1-0.7,0.2-1.2,0.2
		c-0.9,0-1.6-0.2-2.1-0.7c-0.5-0.5-0.8-1.1-0.8-1.9c0-0.6,0.1-1.1,0.4-1.5s0.7-0.7,1.2-0.9c0.5-0.2,1.1-0.3,1.8-0.4
		c0.7,0,1.5,0,2.4,0.1c0.1-0.5,0.1-1,0-1.4s-0.1-0.7-0.3-0.9c-0.1-0.2-0.4-0.4-0.6-0.5s-0.6-0.1-1-0.1c-0.5,0-1.1,0.1-1.5,0.2
		c-0.5,0.1-0.9,0.3-1.3,0.5L395.3,389.3z M398,396.5c0.3,0,0.6,0,0.9-0.2c0.3-0.1,0.5-0.2,0.8-0.4c0.2-0.2,0.4-0.4,0.5-0.5
		s0.2-0.4,0.3-0.6v-1.3c-0.6-0.1-1.2-0.2-1.7-0.2c-0.5,0-1,0.1-1.4,0.2c-0.4,0.1-0.7,0.3-0.9,0.5c-0.2,0.2-0.3,0.5-0.3,0.9
		c0,0.4,0.1,0.7,0.4,1C396.9,396.4,397.3,396.5,398,396.5z"/>
	<path d="M405.8,391.8c0-0.1,0-0.2,0-0.4s0-0.4,0-0.5c0-0.2,0-0.4,0-0.5c0-0.2,0-0.3-0.1-0.5h-1.2v-1.2h2.4l0.2,1.5h0.1
		c0.1-0.2,0.3-0.4,0.5-0.6s0.4-0.4,0.7-0.5s0.6-0.3,0.9-0.4s0.7-0.1,1-0.1c0.5,0,1,0.1,1.5,0.2c0.4,0.1,0.8,0.3,1.1,0.6
		c0.3,0.3,0.5,0.7,0.6,1.2s0.2,1.2,0.2,2v5.1h-1.4v-4.9c0-1-0.2-1.7-0.5-2.2s-0.9-0.8-1.8-0.8c-0.3,0-0.6,0.1-0.9,0.2
		s-0.6,0.3-0.8,0.5s-0.5,0.4-0.6,0.7s-0.3,0.5-0.4,0.9v5.6h-1.4L405.8,391.8L405.8,391.8z"/>
	<path d="M422.8,390c-0.3-0.1-0.6-0.2-0.9-0.2c-0.3-0.1-0.6-0.1-0.9-0.1c-1.2,0-2,0.3-2.6,0.8s-0.9,1.4-0.9,2.6c0,0.5,0.1,1,0.2,1.4
		s0.4,0.8,0.7,1s0.7,0.5,1.1,0.7c0.4,0.2,0.9,0.2,1.5,0.2c0.6,0,1.1-0.1,1.6-0.3c0.5-0.2,1-0.5,1.3-0.8l0.6,1
		c-0.2,0.1-0.4,0.3-0.6,0.5s-0.5,0.3-0.9,0.4s-0.7,0.2-1.1,0.3s-0.8,0.1-1.3,0.1c-0.8,0-1.5-0.1-2.1-0.3c-0.6-0.2-1.1-0.5-1.5-1
		c-0.4-0.4-0.7-0.9-0.9-1.5c-0.2-0.6-0.3-1.2-0.3-1.9c0-0.8,0.1-1.4,0.3-2s0.5-1.1,0.9-1.5c0.4-0.4,0.9-0.7,1.4-0.9
		c0.6-0.2,1.2-0.3,1.9-0.3c0.9,0,1.6,0.1,2.2,0.2c0.6,0.2,1,0.3,1.4,0.5l0,0v2.5h-1.3L422.8,390L422.8,390z"/>
	<path d="M435.2,396.5c-0.2,0.2-0.5,0.4-0.8,0.5s-0.6,0.3-1,0.4s-0.7,0.2-1.1,0.3s-0.8,0.1-1.1,0.1c-0.7,0-1.4-0.1-1.9-0.3
		s-1-0.5-1.4-1s-0.6-0.9-0.8-1.5c-0.2-0.6-0.3-1.2-0.3-1.9c0-0.8,0.1-1.4,0.3-2s0.5-1.1,0.9-1.5c0.4-0.4,0.9-0.7,1.4-0.9
		c0.6-0.2,1.2-0.3,1.9-0.3c0.5,0,1,0.1,1.5,0.2s0.9,0.4,1.3,0.8c0.4,0.4,0.7,0.9,0.9,1.5c0.2,0.6,0.3,1.5,0.2,2.5h-6.9
		c0,1.1,0.3,1.9,0.9,2.4s1.4,0.8,2.3,0.8c0.3,0,0.6,0,1-0.1c0.3-0.1,0.6-0.2,0.9-0.3c0.3-0.1,0.5-0.2,0.8-0.4s0.4-0.2,0.5-0.4
		L435.2,396.5z M431.4,389.6c-0.4,0-0.8,0-1.1,0.1c-0.4,0.1-0.7,0.2-0.9,0.4s-0.5,0.5-0.7,0.8c-0.2,0.3-0.3,0.7-0.3,1.2h5.6
		c-0.1-0.8-0.3-1.4-0.8-1.8C432.7,389.8,432.1,389.6,431.4,389.6z"/>
	<path d="M437.2,385h9.3v3.3h-1.3v-2h-2.6v9.9h2v1.3h-5.4v-1.3h2v-9.9h-2.6v2h-1.3L437.2,385L437.2,385z"/>
	<path d="M448.2,393.1c0-1.5,0.4-2.6,1.1-3.4s1.8-1.3,3.2-1.3c0.8,0,1.4,0.1,2,0.4s1,0.6,1.4,1s0.6,0.9,0.8,1.5s0.3,1.2,0.3,1.9
		c0,0.7-0.1,1.4-0.3,2s-0.5,1.1-0.8,1.5s-0.8,0.7-1.4,0.9s-1.2,0.3-1.9,0.3c-0.7,0-1.4-0.1-1.9-0.4s-1-0.6-1.4-1s-0.6-0.9-0.8-1.5
		C448.3,394.4,448.2,393.8,448.2,393.1z M449.7,393.1c0,0.4,0,0.8,0.1,1.3s0.3,0.8,0.5,1.1c0.2,0.3,0.5,0.6,0.9,0.8
		c0.4,0.2,0.8,0.3,1.3,0.3c1,0,1.7-0.3,2.2-0.9c0.5-0.6,0.7-1.5,0.7-2.6c0-0.4,0-0.9-0.1-1.3c-0.1-0.4-0.3-0.8-0.5-1.1
		s-0.5-0.6-0.9-0.8c-0.4-0.2-0.8-0.3-1.3-0.3c-1,0-1.7,0.3-2.1,0.9C450,391.1,449.7,392,449.7,393.1z"/>
	<path d="M459.4,385c0.5-0.1,0.9-0.1,1.4-0.1c0.5,0,0.9,0,1.3,0c1.1,0,2,0.2,2.7,0.5s1.3,0.8,1.8,1.3c0.5,0.6,0.8,1.2,1,2
		s0.3,1.6,0.3,2.6c0,0.9-0.1,1.7-0.3,2.5s-0.5,1.5-0.9,2.1c-0.4,0.6-1,1.1-1.8,1.5c-0.8,0.4-1.7,0.5-2.8,0.5c-0.2,0-0.4,0-0.6,0
		s-0.5,0-0.8,0c-0.3,0-0.5,0-0.8,0s-0.4,0-0.5,0L459.4,385L459.4,385z M462.2,386.2c-0.2,0-0.4,0-0.6,0c-0.3,0-0.5,0-0.6,0.1v10
		c0.1,0,0.1,0,0.3,0c0.1,0,0.2,0,0.4,0c0.1,0,0.2,0,0.4,0c0.1,0,0.2,0,0.3,0c0.9,0,1.6-0.1,2.1-0.4s1-0.7,1.3-1.2
		c0.3-0.5,0.5-1,0.6-1.7s0.2-1.3,0.2-2c0-0.6,0-1.2-0.1-1.8c-0.1-0.6-0.3-1.1-0.6-1.6c-0.3-0.5-0.7-0.9-1.3-1.2
		C463.8,386.4,463.1,386.2,462.2,386.2z"/>
	<path d="M476.6,395.2c0-0.4-0.1-0.7-0.5-0.9c-0.3-0.2-0.7-0.4-1.1-0.5c-0.4-0.1-0.9-0.2-1.4-0.4c-0.5-0.1-1-0.2-1.4-0.4
		s-0.8-0.4-1.1-0.7s-0.5-0.7-0.5-1.3c0-0.5,0.1-0.8,0.3-1.2c0.2-0.3,0.5-0.6,0.8-0.8s0.7-0.4,1.1-0.5c0.4-0.1,0.9-0.1,1.4-0.1
		c0.8,0,1.6,0.1,2.2,0.3s1.1,0.4,1.5,0.7l-0.6,1.1c-0.4-0.2-0.8-0.4-1.3-0.6c-0.5-0.2-1-0.3-1.7-0.3c-0.3,0-0.5,0-0.8,0.1
		s-0.5,0.1-0.7,0.2c-0.2,0.1-0.4,0.2-0.5,0.4s-0.2,0.4-0.2,0.6c0,0.3,0.1,0.5,0.5,0.7c0.3,0.2,0.7,0.3,1.1,0.4
		c0.4,0.1,0.9,0.2,1.4,0.3s1,0.2,1.4,0.4s0.8,0.5,1.1,0.8s0.5,0.8,0.5,1.3c0,0.8-0.3,1.5-1,2c-0.6,0.5-1.6,0.8-2.9,0.8
		c-0.4,0-0.8,0-1.2-0.1c-0.4-0.1-0.7-0.2-1.1-0.3c-0.3-0.1-0.6-0.2-0.9-0.4s-0.5-0.3-0.7-0.5l0.7-1.2c0.1,0.1,0.3,0.3,0.6,0.4
		c0.2,0.1,0.5,0.3,0.8,0.4c0.3,0.1,0.6,0.2,0.9,0.3c0.3,0.1,0.7,0.1,1,0.1c0.3,0,0.6,0,0.9-0.1s0.5-0.1,0.7-0.2s0.4-0.3,0.5-0.5
		C476.5,395.7,476.6,395.4,476.6,395.2z"/>
	<path d="M480.1,388.6h2.1v-1.8l1.4-0.4v2.2h4.8v1.2h-4.8v4.2c0,0.9,0.2,1.5,0.6,1.9s1,0.6,1.8,0.6c0.5,0,1-0.1,1.4-0.3
		c0.4-0.2,0.8-0.4,1.1-0.7l0.5,1.1c-0.4,0.3-0.9,0.6-1.5,0.8c-0.6,0.2-1.2,0.3-1.8,0.3c-0.5,0-0.9-0.1-1.4-0.2
		c-0.4-0.1-0.8-0.4-1.1-0.6s-0.6-0.7-0.8-1.1c-0.2-0.5-0.3-1-0.3-1.6v-4.5h-2.1L480.1,388.6L480.1,388.6z"/>
	<path d="M492.8,400.2c0.6-0.1,1.1-0.3,1.7-0.6c0.6-0.3,1.1-0.7,1.5-1.3c0.5-0.5,0.8-1.2,1.1-2c0.3-0.8,0.4-1.8,0.4-3
		c0-1.1-0.1-2.1-0.4-2.9c-0.2-0.8-0.6-1.5-1-2c-0.4-0.5-0.9-1-1.5-1.3s-1.2-0.6-2-0.8l0.5-1.1c0.8,0.2,1.5,0.5,2.2,0.9
		s1.3,0.9,1.8,1.6c0.5,0.7,1,1.5,1.3,2.4s0.5,2.1,0.5,3.3c0,1.3-0.1,2.4-0.5,3.3c-0.3,0.9-0.7,1.7-1.2,2.4s-1.1,1.2-1.8,1.6
		c-0.7,0.4-1.5,0.7-2.2,0.9L492.8,400.2z"/>
	<path d="M519,394.8h-3.8l-0.9,2.8h-2.5L516,385h2.5l4,12.6h-2.6L519,394.8z M515.8,392.8h2.7l-1.3-4.2h-0.2L515.8,392.8z"/>
	<path d="M523.8,393.5h2v1.8c0,0,0.1,0,0.1,0c0.3,0.1,0.6,0.2,0.9,0.3c0.3,0.1,0.7,0.1,1,0.1c0.7,0,1.2-0.1,1.6-0.4s0.6-0.6,0.6-1.1
		c0-0.4-0.2-0.7-0.5-1c-0.3-0.2-0.7-0.5-1.1-0.7s-0.9-0.4-1.5-0.6c-0.5-0.2-1-0.4-1.5-0.7c-0.5-0.3-0.8-0.7-1.1-1.1s-0.5-1-0.5-1.7
		c0-0.5,0.1-1,0.3-1.5s0.5-0.8,0.9-1.2s0.8-0.6,1.4-0.8c0.5-0.2,1.1-0.3,1.8-0.3c0.7,0,1.5,0.1,2.2,0.2c0.7,0.1,1.3,0.3,1.7,0.5v3.6
		h-2v-2c0,0-0.1,0-0.1,0c-0.3-0.1-0.5-0.1-0.8-0.2c-0.3,0-0.6-0.1-0.9-0.1c-0.6,0-1,0.1-1.3,0.3c-0.3,0.2-0.5,0.5-0.5,0.9
		c0,0.4,0.2,0.7,0.5,1c0.3,0.2,0.7,0.5,1.1,0.7c0.5,0.2,0.9,0.4,1.5,0.6c0.5,0.2,1,0.5,1.5,0.8c0.5,0.3,0.8,0.7,1.1,1.1
		s0.5,1,0.5,1.7c0,0.6-0.1,1.2-0.4,1.7c-0.2,0.5-0.6,0.9-1,1.2s-0.9,0.6-1.5,0.7c-0.6,0.2-1.2,0.2-1.9,0.2c-0.5,0-0.9,0-1.3-0.1
		c-0.4-0.1-0.8-0.2-1.1-0.3s-0.6-0.2-0.9-0.3s-0.5-0.2-0.6-0.3V393.5z"/>
	<path d="M545.9,391.8c0-0.1,0-0.2,0-0.4s0-0.4,0-0.5s0-0.4,0-0.5c0-0.2,0-0.3-0.1-0.5h-1.2v-1.2h2.4l0.2,1.3h0.1
		c0.3-0.4,0.7-0.8,1.2-1s1.1-0.4,1.8-0.4c1.3,0,2.2,0.4,2.9,1.1s1,1.9,1,3.5c0,0.8-0.1,1.4-0.3,2c-0.2,0.6-0.5,1.1-0.9,1.5
		c-0.4,0.4-0.9,0.7-1.5,1c-0.6,0.2-1.2,0.3-1.9,0.3c-0.2,0-0.5,0-0.7,0c-0.2,0-0.4,0-0.5-0.1s-0.3-0.1-0.5-0.1s-0.3-0.1-0.5-0.2v3.8
		h-1.4L545.9,391.8L545.9,391.8z M550,389.7c-0.4,0-0.7,0.1-1,0.2c-0.3,0.1-0.6,0.3-0.8,0.5s-0.5,0.5-0.6,0.7
		c-0.2,0.3-0.2,0.5-0.3,0.8v4.1c0.3,0.2,0.6,0.3,0.9,0.4s0.8,0.1,1.3,0.1c1,0,1.7-0.3,2.3-0.9c0.6-0.6,0.9-1.5,0.9-2.8
		c0-1-0.2-1.8-0.6-2.4C551.6,390,550.9,389.7,550,389.7z"/>
	<path d="M556.1,397.6v-1.2h2.4v-6.6h-2.4v-1.2h3.4l0.3,1.2h0.1c0.4-0.4,0.9-0.7,1.4-1s1.1-0.4,1.8-0.4c0.4,0,0.7,0.1,1,0.2
		s0.4,0.4,0.6,0.7c0.1,0.3,0.2,0.7,0.3,1.1s0.1,0.9,0.1,1.4l-1.3,0c0-0.8-0.1-1.3-0.2-1.7s-0.4-0.5-0.8-0.5c-0.4,0-0.7,0-1,0.2
		s-0.6,0.2-0.8,0.4c-0.2,0.2-0.4,0.3-0.6,0.5c-0.2,0.2-0.3,0.3-0.3,0.4v5.3h3.5v1.2L556.1,397.6L556.1,397.6z"/>
	<path d="M566.7,393.1c0-1.5,0.4-2.6,1.1-3.4s1.8-1.3,3.2-1.3c0.8,0,1.4,0.1,2,0.4s1,0.6,1.4,1s0.6,0.9,0.8,1.5s0.3,1.2,0.3,1.9
		c0,0.7-0.1,1.4-0.3,2s-0.5,1.1-0.8,1.5c-0.4,0.4-0.8,0.7-1.4,0.9s-1.2,0.3-1.9,0.3c-0.7,0-1.4-0.1-1.9-0.4s-1-0.6-1.4-1
		s-0.6-0.9-0.8-1.5C566.8,394.4,566.7,393.8,566.7,393.1z M568.2,393.1c0,0.4,0,0.8,0.2,1.3s0.3,0.8,0.5,1.1
		c0.2,0.3,0.5,0.6,0.9,0.8c0.4,0.2,0.8,0.3,1.3,0.3c1,0,1.7-0.3,2.2-0.9c0.5-0.6,0.7-1.5,0.7-2.6c0-0.4,0-0.9-0.2-1.3
		c-0.1-0.4-0.3-0.8-0.5-1.1s-0.5-0.6-0.9-0.8c-0.4-0.2-0.8-0.3-1.3-0.3c-1,0-1.7,0.3-2.2,0.9C568.4,391.1,568.2,392,568.2,393.1z"/>
	<path d="M581.2,397.6v-6c0-0.2,0-0.5,0-0.7c0-0.2-0.1-0.4-0.1-0.6s-0.2-0.3-0.3-0.4c-0.1-0.1-0.3-0.2-0.5-0.2c-0.4,0-0.8,0.2-1,0.5
		s-0.5,0.8-0.6,1.3v6.2h-1.4v-9h0.9l0.3,1.1h0.1c0.1-0.2,0.2-0.4,0.3-0.5s0.2-0.3,0.4-0.4c0.2-0.1,0.3-0.2,0.5-0.3s0.5-0.1,0.8-0.1
		c0.2,0,0.4,0,0.6,0.1s0.4,0.1,0.5,0.2c0.2,0.1,0.3,0.3,0.4,0.5s0.2,0.4,0.2,0.7c0.3-0.5,0.6-0.8,0.9-1.1c0.3-0.3,0.8-0.4,1.4-0.4
		c0.4,0,0.7,0.1,1,0.2s0.4,0.3,0.6,0.6c0.1,0.2,0.2,0.5,0.3,0.9s0.1,0.7,0.1,1.1v6.4h-1.4v-6.1c0-0.2,0-0.5,0-0.7
		c0-0.2-0.1-0.4-0.1-0.6c-0.1-0.2-0.2-0.3-0.3-0.4c-0.1-0.1-0.3-0.1-0.5-0.1c-0.4,0-0.8,0.2-1.1,0.5s-0.5,0.8-0.7,1.4v6L581.2,397.6
		L581.2,397.6z"/>
	<path d="M588.2,393.1c0-1.5,0.4-2.6,1.1-3.4s1.8-1.3,3.2-1.3c0.8,0,1.4,0.1,2,0.4s1,0.6,1.4,1s0.6,0.9,0.8,1.5s0.3,1.2,0.3,1.9
		c0,0.7-0.1,1.4-0.3,2s-0.5,1.1-0.8,1.5c-0.4,0.4-0.8,0.7-1.4,0.9s-1.2,0.3-1.9,0.3c-0.7,0-1.4-0.1-1.9-0.4s-1-0.6-1.4-1
		s-0.6-0.9-0.8-1.5C588.3,394.4,588.2,393.8,588.2,393.1z M589.7,393.1c0,0.4,0,0.8,0.2,1.3s0.3,0.8,0.5,1.1
		c0.2,0.3,0.5,0.6,0.9,0.8c0.4,0.2,0.8,0.3,1.3,0.3c1,0,1.7-0.3,2.2-0.9c0.5-0.6,0.7-1.5,0.7-2.6c0-0.4,0-0.9-0.2-1.3
		c-0.1-0.4-0.3-0.8-0.5-1.1s-0.5-0.6-0.9-0.8c-0.4-0.2-0.8-0.3-1.3-0.3c-1,0-1.7,0.3-2.2,0.9C590,391.1,589.7,392,589.7,393.1z"/>
	<path d="M598.6,388.6h2.1v-1.8l1.4-0.4v2.2h4.8v1.2h-4.8v4.2c0,0.9,0.2,1.5,0.6,1.9s1,0.6,1.8,0.6c0.5,0,1-0.1,1.4-0.3
		c0.4-0.2,0.8-0.4,1.1-0.7l0.5,1.1c-0.4,0.3-0.9,0.6-1.5,0.8c-0.6,0.2-1.2,0.3-1.8,0.3c-0.5,0-0.9-0.1-1.4-0.2
		c-0.4-0.1-0.8-0.4-1.1-0.6s-0.6-0.7-0.8-1.1c-0.2-0.5-0.3-1-0.3-1.6v-4.5h-2.1L598.6,388.6L598.6,388.6z"/>
	<path d="M610.7,397.6v-1.2h3.1v-6.6h-3.1v-1.2h4.5v7.8h3v1.2L610.7,397.6L610.7,397.6z M613.3,386.1c0-0.3,0.1-0.6,0.3-0.8
		c0.2-0.2,0.5-0.4,0.8-0.4c0.3,0,0.6,0.1,0.9,0.4s0.3,0.5,0.3,0.8c0,0.3-0.1,0.6-0.3,0.8s-0.5,0.3-0.9,0.3c-0.3,0-0.6-0.1-0.8-0.3
		C613.4,386.6,613.3,386.4,613.3,386.1z"/>
	<path d="M620.6,393.1c0-1.5,0.4-2.6,1.1-3.4s1.8-1.3,3.2-1.3c0.8,0,1.4,0.1,2,0.4s1,0.6,1.4,1s0.6,0.9,0.8,1.5s0.3,1.2,0.3,1.9
		c0,0.7-0.1,1.4-0.3,2s-0.5,1.1-0.8,1.5c-0.4,0.4-0.8,0.7-1.4,0.9s-1.2,0.3-1.9,0.3c-0.7,0-1.4-0.1-1.9-0.4s-1-0.6-1.4-1
		s-0.6-0.9-0.8-1.5C620.7,394.4,620.6,393.8,620.6,393.1z M622,393.1c0,0.4,0,0.8,0.2,1.3s0.3,0.8,0.5,1.1c0.2,0.3,0.5,0.6,0.9,0.8
		c0.4,0.2,0.8,0.3,1.3,0.3c1,0,1.7-0.3,2.2-0.9c0.5-0.6,0.7-1.5,0.7-2.6c0-0.4,0-0.9-0.2-1.3c-0.1-0.4-0.3-0.8-0.5-1.1
		s-0.5-0.6-0.9-0.8c-0.4-0.2-0.8-0.3-1.3-0.3c-1,0-1.7,0.3-2.2,0.9C622.3,391.1,622,392,622,393.1z"/>
	<path d="M632,391.8c0-0.1,0-0.2,0-0.4s0-0.4,0-0.5c0-0.2,0-0.4,0-0.5c0-0.2,0-0.3-0.1-0.5h-1.2v-1.2h2.4l0.2,1.5h0.1
		c0.1-0.2,0.3-0.4,0.5-0.6c0.2-0.2,0.4-0.4,0.7-0.5s0.6-0.3,0.9-0.4s0.7-0.1,1-0.1c0.5,0,1,0.1,1.5,0.2c0.4,0.1,0.8,0.3,1.1,0.6
		c0.3,0.3,0.5,0.7,0.6,1.2s0.2,1.2,0.2,2v5.1h-1.4v-4.9c0-1-0.2-1.7-0.5-2.2s-0.9-0.8-1.8-0.8c-0.3,0-0.6,0.1-0.9,0.2
		c-0.3,0.1-0.6,0.3-0.8,0.5s-0.5,0.4-0.6,0.7s-0.3,0.5-0.4,0.9v5.6H632L632,391.8L632,391.8z"/>
</g>
</svg>
